<svg width="1920" height="2167" viewBox="0 0 1920 2167" fill="none" xmlns="http://www.w3.org/2000/svg">
<g filter="url(#filter0_f_379_13204)">
<ellipse cx="702.381" cy="1051.67" rx="217.166" ry="224.667" fill="#2196F3"/>
</g>
<g filter="url(#filter1_f_379_13204)">
<ellipse cx="985.954" cy="1429" rx="162.044" ry="163.333" fill="#FF3333"/>
</g>
<g filter="url(#filter2_f_379_13204)">
<path d="M407.792 1375.64C407.792 1514.87 10.751 1592.69 128.486 1592.69C190.653 1592.69 360.062 1624.88 464.424 1592.69C557.708 1563.92 590.141 1474.76 590.141 1409.04C590.141 1269.82 441.32 1143 323.585 1143C205.85 1143 407.792 1236.42 407.792 1375.64Z" fill="#E507B6"/>
</g>
<path d="M2.7589 2008C72.5802 1677.79 69.4676 1363.71 54.5413 1158.3C38.3416 935.78 5.23483 789.485 4.88112 788L2.19297 788.919C2.54667 790.404 35.5827 936.487 51.7116 1158.72C66.638 1363.78 69.7506 1677.44 0 2007.15L2.7589 2008Z" fill="#131618"/>
<path d="M602.005 1247.46L601.793 1244L60.1299 1294.41L60.3421 1297.88L602.005 1247.46Z" fill="#131618"/>
<path d="M652.868 1610.2L654 1607.01L60.8369 1294.55L59.7051 1297.74L652.868 1610.2Z" fill="#131618"/>
<path d="M402.375 918.457L400.465 915.911L59.2812 1294.84L61.1913 1297.38L402.375 918.457Z" fill="#131618"/>
<path d="M367.853 1752.39L61.3326 1295.05L59.1396 1297.24L365.731 1754.58L367.853 1752.39Z" fill="#131618"/>
<path d="M635.537 1599.16L633.415 1596.69C538.905 1488.93 583.896 1250.15 584.321 1247.74L584.533 1246.68L583.684 1246.26C434.633 1170.32 383.982 940.235 383.487 937.901L383.204 936.629L382.214 936.982C285.299 967.952 188.737 930.336 124.717 893.285C55.3198 853.122 8.27709 805.041 7.85265 804.546L6.50857 806.526C7.00376 807.021 54.188 855.314 123.797 895.618C187.888 932.74 284.591 970.427 381.719 939.811C385.963 958.265 438.382 1174.28 582.128 1248.17C578.944 1265.7 540.461 1490.13 629.948 1596.2C606.321 1595.42 440.08 1595.42 357.313 1738.96C351.441 1740.16 289.755 1752.96 217.953 1787.74C148.556 1821.33 55.3198 1882.71 5.09375 1984.74L6.93301 1986.08C56.8761 1884.68 149.688 1823.59 218.731 1790.15C293.646 1753.95 357.525 1741.57 358.162 1741.43L358.586 1741.36L358.869 1740.93C446.871 1587.64 630.868 1598.81 632.778 1598.95L635.537 1599.16Z" fill="#131618"/>
<path d="M580.147 1569.96L578.025 1567.56C492.358 1468.85 534.307 1254.53 534.802 1252.41L535.014 1251.35L534.166 1250.93C398.838 1181.07 353.847 973.538 353.422 971.417L351.371 972.054C351.795 974.175 396.857 1182.13 532.539 1252.84C529.426 1269.38 493.773 1470.12 574.629 1567.13C552.558 1566.71 403.648 1568.69 330.149 1698.51C318.618 1700.77 110.498 1744.54 19.8789 1904.98L21.6474 1906.46C113.894 1743.13 328.875 1701.34 330.998 1700.98L331.563 1700.84L331.776 1700.21C410.086 1561.41 575.62 1569.68 577.318 1569.82L580.147 1569.96Z" fill="#131618"/>
<path d="M485.071 1257.29L485.495 1256.02L484.505 1255.52C363.113 1191.81 323.711 1006.63 323.286 1004.79L323.003 1003.59L322.013 1003.87C184.068 1043.75 49.9432 923.406 24.4765 898.871L23.2031 900.921C48.7406 925.528 183.007 1046.01 321.588 1006.63C325.267 1023.03 366.58 1196.41 483.727 1257.93L484.151 1256.8L485.071 1257.29Z" fill="#131618"/>
<path d="M521.857 1540.62L521.927 1538C520.442 1537.93 372.452 1532.27 302.984 1658.06C292.585 1660.12 115.45 1696.67 31.1973 1832.86L32.8951 1834.41C118.775 1695.68 301.923 1660.89 303.762 1660.54L304.257 1660.47L304.54 1659.97C373.159 1534.96 520.371 1540.55 521.857 1540.62Z" fill="#131618"/>
<path d="M467.173 1509.22C399.05 1428.9 435.269 1263.3 435.623 1261.67L435.835 1260.61L434.986 1260.19C327.389 1202.49 293.575 1039.79 293.292 1038.17L293.08 1036.96L292.09 1037.25C173.669 1069.21 62.6059 974.387 31.4092 944.548L31.197 944.407L30.2773 946.74C61.4741 976.508 172.679 1071.4 291.594 1040.07C294.919 1055.21 330.502 1206.31 433.501 1262.1C430.459 1276.66 399.828 1433.21 465.9 1511.13L467.173 1509.22Z" fill="#131618"/>
<path d="M276.597 1619.95L276.314 1617.41C274.758 1617.69 118.067 1646.61 39.9687 1765.61L41.5958 1767.24C119.199 1649.01 275.041 1620.17 276.597 1619.95Z" fill="#131618"/>
<path d="M413.694 1482.28L411.854 1480.02C355.332 1412.21 382.709 1281.26 385.963 1266.55L386.388 1265.35L385.468 1264.64C291.595 1213.17 263.44 1073.02 263.157 1071.61L261.105 1072.18C261.388 1073.59 289.614 1214.16 383.699 1266.55C379.809 1284.37 354.342 1411.29 408.53 1479.67C391.693 1480.3 294.424 1487.66 248.655 1576.96C239.742 1578.66 113.752 1603.69 46.8311 1701.48L48.4581 1703.18C116.935 1603.05 248.089 1579.72 249.433 1579.51L249.928 1579.44L250.211 1578.94C299.447 1482.21 409.944 1482.28 411.005 1482.35L413.694 1482.28Z" fill="#131618"/>
<path d="M358.161 1453.01L356.393 1450.82C306.521 1389.52 335.171 1275.75 336.444 1270.94L336.727 1269.88L335.949 1269.31C255.941 1224.06 233.374 1106.26 233.162 1105.06L232.95 1103.85L231.96 1104.07C143.746 1122.52 64.5866 1054.64 42.4447 1033.43L41.1006 1035.48C63.3132 1056.76 142.614 1124.71 231.323 1106.82C233.94 1119.41 258.275 1227.52 334.251 1271.22C330.997 1284.51 306.874 1390.5 353.28 1450.61C338.425 1451.67 258.205 1460.72 221.49 1536.52C213.213 1538 109.366 1558.15 52.2777 1639.82L53.9047 1641.52C112.62 1557.59 221.207 1539.2 222.339 1538.99L222.834 1538.92L223.117 1538.36C262.732 1455.84 354.837 1453.08 355.756 1453.08L358.161 1453.01Z" fill="#131618"/>
<path d="M286.784 1275.67L287.209 1274.47L286.289 1273.91C220.076 1234.66 203.168 1139.42 203.027 1138.5L202.815 1137.3L201.824 1137.44C127.829 1149.6 64.5869 1094.17 46.9017 1076.91L45.5576 1078.96C63.3136 1096.29 126.697 1151.79 201.117 1140.2C203.31 1151.37 222.198 1238.84 285.369 1276.24L285.794 1275.11L286.784 1275.67Z" fill="#131618"/>
<path d="M300.367 1423.88L300.225 1421.26C299.447 1421.33 224.957 1426.78 194.255 1495.93C186.686 1497.2 103.282 1512.55 56.1689 1580L57.796 1581.7C106.395 1512.12 194.185 1498.55 195.104 1498.48L195.67 1498.41L195.953 1497.84C225.876 1429.39 299.589 1423.95 300.367 1423.88Z" fill="#131618"/>
<path d="M247.099 1394.46L245.684 1392.56C212.86 1349 237.053 1280.98 237.266 1280.34L237.69 1279.21L236.841 1278.64C184.493 1245.48 173.104 1172.65 172.962 1171.95L170.911 1172.44C171.052 1173.15 182.441 1246.4 235.002 1280.41C232.031 1289.46 213.285 1350.84 242.854 1392.48C232.668 1394.54 185.978 1406.41 167.303 1455.34C154.287 1457.39 94.5104 1469.63 58.9277 1522.16L60.5548 1523.79C95.9253 1471.47 155.843 1459.73 167.657 1457.89L168.364 1458.24L168.859 1457.11C189.091 1402.95 244.481 1394.75 244.976 1394.68L247.099 1394.46Z" fill="#131618"/>
<path d="M191.426 1365.05L190.294 1363.42C166.383 1329.13 187.393 1285.5 187.606 1285.08L188.172 1283.95L187.252 1283.31C148.698 1256.23 143.039 1205.89 142.968 1205.39L142.827 1204.26H141.907C94.2276 1203.84 62.6772 1171.8 54.1883 1162.05L52.7734 1163.96C61.4038 1173.85 93.0958 1206.03 141.058 1206.88C142.119 1214.51 149.901 1259.41 185.342 1284.94C182.159 1292.08 166.525 1331.32 187.747 1363.64C180.39 1366.25 149.972 1379.12 139.997 1415.04C133.701 1415.82 87.2243 1422.82 60.5549 1466.02L62.2527 1467.58C90.1954 1422.32 140.421 1417.59 140.917 1417.52L141.483 1417.37L141.695 1416.53C152.377 1376.5 189.374 1365.62 189.728 1365.47L191.426 1365.05Z" fill="#131618"/>
<path d="M113.54 1376.93V1374.31C113.186 1374.31 79.2307 1374.17 60.9795 1412.71L62.8188 1413.98C80.4333 1376.86 113.186 1376.93 113.54 1376.93Z" fill="#131618"/>
<path d="M134.903 1334.22C119.906 1309.4 137.096 1290.74 137.804 1289.96L138.865 1288.9L137.733 1287.98C112.974 1267.12 112.832 1239.26 112.832 1239.05V1237.92L111.913 1237.7C72.6513 1229.86 57.0883 1203.62 56.9468 1203.34L55.249 1204.83C55.8857 1205.96 71.2365 1231.84 110.781 1240.11C111.064 1245.55 113.681 1270.09 135.54 1289.18C131.791 1293.92 119.199 1312.58 133.276 1335.85L134.903 1334.22Z" fill="#131618"/>
<defs>
<filter id="filter0_f_379_13204" x="-341.452" y="0.333313" width="2087.67" height="2102.67" filterUnits="userSpaceOnUse" color-interpolation-filters="sRGB">
<feFlood flood-opacity="0" result="BackgroundImageFix"/>
<feBlend mode="normal" in="SourceGraphic" in2="BackgroundImageFix" result="shape"/>
<feGaussianBlur stdDeviation="413.333" result="effect1_foregroundBlur_379_13204"/>
</filter>
<filter id="filter1_f_379_13204" x="263.91" y="705.664" width="1444.09" height="1446.67" filterUnits="userSpaceOnUse" color-interpolation-filters="sRGB">
<feFlood flood-opacity="0" result="BackgroundImageFix"/>
<feBlend mode="normal" in="SourceGraphic" in2="BackgroundImageFix" result="shape"/>
<feGaussianBlur stdDeviation="280" result="effect1_foregroundBlur_379_13204"/>
</filter>
<filter id="filter2_f_379_13204" x="-453.336" y="583" width="1603.48" height="1584" filterUnits="userSpaceOnUse" color-interpolation-filters="sRGB">
<feFlood flood-opacity="0" result="BackgroundImageFix"/>
<feBlend mode="normal" in="SourceGraphic" in2="BackgroundImageFix" result="shape"/>
<feGaussianBlur stdDeviation="280" result="effect1_foregroundBlur_379_13204"/>
</filter>
</defs>
</svg>
