<svg width="2374" height="2167" viewBox="0 0 2374 2167" fill="none" xmlns="http://www.w3.org/2000/svg">
<g filter="url(#filter0_f_460_1203)">
<ellipse cx="1156.38" cy="1051.67" rx="217.166" ry="224.667" fill="#2196F3"/>
</g>
<g filter="url(#filter1_f_460_1203)">
<ellipse cx="1439.95" cy="1429" rx="162.044" ry="163.333" fill="#FF3333"/>
</g>
<g filter="url(#filter2_f_460_1203)">
<path d="M861.792 1375.64C861.792 1514.87 464.751 1592.69 582.486 1592.69C644.653 1592.69 814.062 1624.88 918.424 1592.69C1011.71 1563.92 1044.14 1474.76 1044.14 1409.04C1044.14 1269.82 895.32 1143 777.585 1143C659.85 1143 861.792 1236.42 861.792 1375.64Z" fill="#E507B6"/>
</g>
<path d="M456.759 2008C526.58 1677.79 523.468 1363.71 508.541 1158.3C492.342 935.78 459.235 789.485 458.881 788L456.193 788.919C456.547 790.404 489.583 936.487 505.712 1158.72C520.638 1363.78 523.751 1677.44 454 2007.15L456.759 2008Z" fill="#131618"/>
<path d="M1056.01 1247.46L1055.79 1244L514.13 1294.41L514.342 1297.88L1056.01 1247.46Z" fill="#131618"/>
<path d="M1106.87 1610.2L1108 1607.01L514.837 1294.55L513.706 1297.74L1106.87 1610.2Z" fill="#131618"/>
<path d="M856.374 918.457L854.464 915.911L513.281 1294.84L515.191 1297.38L856.374 918.457Z" fill="#131618"/>
<path d="M821.853 1752.39L515.333 1295.05L513.14 1297.24L819.731 1754.58L821.853 1752.39Z" fill="#131618"/>
<path d="M1089.54 1599.17L1087.41 1596.69C992.904 1488.93 1037.9 1250.15 1038.32 1247.75L1038.53 1246.68L1037.68 1246.26C888.632 1170.32 837.982 940.235 837.487 937.902L837.204 936.629L836.213 936.982C739.298 967.953 642.737 930.336 578.716 893.285C509.319 853.122 462.277 805.041 461.852 804.546L460.508 806.526C461.003 807.021 508.187 855.314 577.797 895.618C641.888 932.74 738.591 970.427 835.718 939.811C839.962 958.265 892.382 1174.28 1036.13 1248.17C1032.94 1265.7 994.461 1490.13 1083.95 1596.2C1060.32 1595.42 894.079 1595.42 811.312 1738.96C805.441 1740.16 743.755 1752.96 671.953 1787.74C602.556 1821.33 509.319 1882.71 459.093 1984.74L460.933 1986.08C510.876 1884.68 603.688 1823.59 672.731 1790.15C747.646 1753.95 811.525 1741.57 812.161 1741.43L812.586 1741.36L812.869 1740.94C900.87 1587.64 1084.87 1598.81 1086.78 1598.95L1089.54 1599.17Z" fill="#131618"/>
<path d="M1034.15 1569.96L1032.02 1567.56C946.357 1468.85 988.306 1254.53 988.801 1252.41L989.013 1251.35L988.165 1250.93C852.837 1181.07 807.846 973.538 807.421 971.417L805.37 972.054C805.794 974.175 850.856 1182.13 986.538 1252.84C983.425 1269.38 947.772 1470.12 1028.63 1567.13C1006.56 1566.71 857.648 1568.69 784.148 1698.51C772.617 1700.77 564.497 1744.54 473.878 1904.98L475.646 1906.46C567.893 1743.13 782.874 1701.34 784.997 1700.98L785.563 1700.84L785.775 1700.21C864.085 1561.41 1029.62 1569.68 1031.32 1569.82L1034.15 1569.96Z" fill="#131618"/>
<path d="M939.071 1257.29L939.495 1256.02L938.505 1255.52C817.113 1191.81 777.711 1006.63 777.286 1004.79L777.003 1003.59L776.013 1003.87C638.068 1043.75 503.943 923.406 478.476 898.871L477.203 900.921C502.741 925.528 637.007 1046.01 775.588 1006.63C779.267 1023.03 820.58 1196.41 937.727 1257.93L938.151 1256.8L939.071 1257.29Z" fill="#131618"/>
<path d="M975.856 1540.62L975.927 1538C974.441 1537.93 826.451 1532.27 756.984 1658.06C746.585 1660.12 569.449 1696.67 485.197 1832.86L486.895 1834.41C572.774 1695.68 755.922 1660.89 757.762 1660.54L758.257 1660.47L758.54 1659.97C827.159 1534.96 974.37 1540.55 975.856 1540.62Z" fill="#131618"/>
<path d="M921.173 1509.22C853.049 1428.9 889.269 1263.3 889.622 1261.67L889.835 1260.61L888.986 1260.19C781.389 1202.49 747.575 1039.79 747.292 1038.17L747.079 1036.96L746.089 1037.25C627.669 1069.21 516.605 974.387 485.409 944.548L485.196 944.407L484.277 946.74C515.474 976.508 626.678 1071.4 745.594 1040.08C748.919 1055.21 784.501 1206.31 887.5 1262.1C884.458 1276.66 853.828 1433.21 919.9 1511.13L921.173 1509.22Z" fill="#131618"/>
<path d="M730.597 1619.95L730.314 1617.41C728.758 1617.69 572.067 1646.61 493.969 1765.61L495.596 1767.24C573.199 1649.01 729.041 1620.17 730.597 1619.95Z" fill="#131618"/>
<path d="M867.693 1482.28L865.854 1480.02C809.332 1412.21 836.709 1281.26 839.963 1266.55L840.387 1265.35L839.468 1264.64C745.594 1213.17 717.439 1073.03 717.156 1071.61L715.105 1072.18C715.388 1073.59 743.614 1214.16 837.699 1266.55C833.808 1284.37 808.341 1411.29 862.529 1479.67C845.693 1480.3 748.424 1487.66 702.655 1576.96C693.741 1578.66 567.752 1603.69 500.831 1701.48L502.458 1703.18C570.935 1603.05 702.089 1579.72 703.433 1579.51L703.928 1579.44L704.211 1578.94C753.446 1482.21 863.944 1482.28 865.005 1482.36L867.693 1482.28Z" fill="#131618"/>
<path d="M812.161 1453.01L810.393 1450.82C760.521 1389.52 789.171 1275.75 790.444 1270.94L790.727 1269.88L789.949 1269.31C709.941 1224.06 687.374 1106.26 687.162 1105.06L686.95 1103.85L685.96 1104.07C597.746 1122.52 518.587 1054.64 496.445 1033.43L495.101 1035.48C517.313 1056.76 596.614 1124.71 685.323 1106.82C687.94 1119.41 712.275 1227.52 788.251 1271.22C784.997 1284.51 760.874 1390.51 807.28 1450.61C792.425 1451.67 712.205 1460.72 675.49 1536.52C667.213 1538 563.366 1558.15 506.278 1639.82L507.905 1641.52C566.62 1557.59 675.207 1539.2 676.339 1538.99L676.834 1538.92L677.117 1538.36C716.732 1455.84 808.837 1453.08 809.756 1453.08L812.161 1453.01Z" fill="#131618"/>
<path d="M740.784 1275.67L741.208 1274.47L740.289 1273.91C674.075 1234.66 657.168 1139.42 657.026 1138.5L656.814 1137.3L655.824 1137.44C581.829 1149.6 518.586 1094.17 500.901 1076.91L499.557 1078.96C517.313 1096.29 580.697 1151.79 655.116 1140.2C657.309 1151.37 676.197 1238.84 739.369 1276.24L739.793 1275.11L740.784 1275.67Z" fill="#131618"/>
<path d="M754.366 1423.88L754.225 1421.26C753.447 1421.33 678.956 1426.78 648.255 1495.93C640.685 1497.2 557.282 1512.55 510.168 1580L511.795 1581.7C560.395 1512.12 648.184 1498.55 649.104 1498.48L649.67 1498.41L649.953 1497.84C679.876 1429.39 753.588 1423.95 754.366 1423.88Z" fill="#131618"/>
<path d="M701.098 1394.46L699.683 1392.56C666.86 1349 691.053 1280.98 691.265 1280.34L691.69 1279.21L690.841 1278.64C638.492 1245.48 627.103 1172.65 626.962 1171.95L624.91 1172.44C625.052 1173.15 636.441 1246.4 689.001 1280.41C686.03 1289.46 667.284 1350.84 696.854 1392.48C686.667 1394.54 639.978 1406.41 621.302 1455.34C608.286 1457.39 548.51 1469.63 512.927 1522.16L514.554 1523.79C549.925 1471.47 609.842 1459.73 621.656 1457.89L622.364 1458.24L622.859 1457.11C643.091 1402.95 698.481 1394.75 698.976 1394.68L701.098 1394.46Z" fill="#131618"/>
<path d="M645.425 1365.05L644.293 1363.42C620.382 1329.13 641.393 1285.5 641.605 1285.08L642.171 1283.95L641.251 1283.31C602.697 1256.23 597.038 1205.89 596.967 1205.39L596.826 1204.26H595.906C548.227 1203.84 516.676 1171.8 508.187 1162.05L506.772 1163.96C515.403 1173.85 547.095 1206.03 595.057 1206.88C596.118 1214.51 603.9 1259.41 639.341 1284.94C636.158 1292.08 620.524 1331.32 641.746 1363.64C634.389 1366.25 603.971 1379.12 593.996 1415.04C587.7 1415.82 541.223 1422.82 514.554 1466.02L516.252 1467.58C544.194 1422.32 594.421 1417.59 594.916 1417.52L595.482 1417.37L595.694 1416.53C606.376 1376.5 643.373 1365.62 643.727 1365.47L645.425 1365.05Z" fill="#131618"/>
<path d="M567.539 1376.93V1374.31C567.185 1374.31 533.23 1374.17 514.979 1412.71L516.818 1413.98C534.432 1376.86 567.185 1376.93 567.539 1376.93Z" fill="#131618"/>
<path d="M588.903 1334.22C573.906 1309.4 591.096 1290.74 591.803 1289.96L592.864 1288.9L591.732 1287.98C566.973 1267.12 566.832 1239.26 566.832 1239.05V1237.92L565.912 1237.7C526.651 1229.86 511.088 1203.62 510.946 1203.34L509.249 1204.83C509.885 1205.96 525.236 1231.84 564.78 1240.11C565.063 1245.55 567.681 1270.09 589.54 1289.18C585.79 1293.92 573.198 1312.58 587.276 1335.85L588.903 1334.22Z" fill="#131618"/>
<defs>
<filter id="filter0_f_460_1203" x="112.548" y="0.333313" width="2087.66" height="2102.67" filterUnits="userSpaceOnUse" color-interpolation-filters="sRGB">
<feFlood flood-opacity="0" result="BackgroundImageFix"/>
<feBlend mode="normal" in="SourceGraphic" in2="BackgroundImageFix" result="shape"/>
<feGaussianBlur stdDeviation="413.333" result="effect1_foregroundBlur_460_1203"/>
</filter>
<filter id="filter1_f_460_1203" x="717.91" y="705.664" width="1444.09" height="1446.67" filterUnits="userSpaceOnUse" color-interpolation-filters="sRGB">
<feFlood flood-opacity="0" result="BackgroundImageFix"/>
<feBlend mode="normal" in="SourceGraphic" in2="BackgroundImageFix" result="shape"/>
<feGaussianBlur stdDeviation="280" result="effect1_foregroundBlur_460_1203"/>
</filter>
<filter id="filter2_f_460_1203" x="0.664551" y="583" width="1603.48" height="1584" filterUnits="userSpaceOnUse" color-interpolation-filters="sRGB">
<feFlood flood-opacity="0" result="BackgroundImageFix"/>
<feBlend mode="normal" in="SourceGraphic" in2="BackgroundImageFix" result="shape"/>
<feGaussianBlur stdDeviation="280" result="effect1_foregroundBlur_460_1203"/>
</filter>
</defs>
</svg>
