<svg width="2494" height="2218" viewBox="0 0 2494 2218" fill="none" xmlns="http://www.w3.org/2000/svg">
<g opacity="0.6" filter="url(#filter0_f_362_4982)">
<ellipse cx="1600.72" cy="1323.67" rx="332.722" ry="334" fill="#FC3232"/>
</g>
<g filter="url(#filter1_f_362_4982)">
<ellipse cx="1155.71" cy="1051.67" rx="217.166" ry="224.667" fill="#2196F3"/>
</g>
<g filter="url(#filter2_f_362_4982)">
<ellipse cx="1439.29" cy="1429" rx="162.044" ry="163.333" fill="#FF3333"/>
</g>
<g filter="url(#filter3_f_362_4982)">
<path d="M861.128 1375.64C861.128 1514.87 464.087 1592.69 581.822 1592.69C643.989 1592.69 813.398 1624.88 917.76 1592.69C1011.04 1563.92 1043.48 1474.76 1043.48 1409.04C1043.48 1269.82 894.656 1143 776.921 1143C659.186 1143 861.128 1236.42 861.128 1375.64Z" fill="#E507B6"/>
</g>
<defs>
<filter id="filter0_f_362_4982" x="708.002" y="429.667" width="1785.44" height="1788" filterUnits="userSpaceOnUse" color-interpolation-filters="sRGB">
<feFlood flood-opacity="0" result="BackgroundImageFix"/>
<feBlend mode="normal" in="SourceGraphic" in2="BackgroundImageFix" result="shape"/>
<feGaussianBlur stdDeviation="280" result="effect1_foregroundBlur_362_4982"/>
</filter>
<filter id="filter1_f_362_4982" x="111.882" y="0.333313" width="2087.67" height="2102.67" filterUnits="userSpaceOnUse" color-interpolation-filters="sRGB">
<feFlood flood-opacity="0" result="BackgroundImageFix"/>
<feBlend mode="normal" in="SourceGraphic" in2="BackgroundImageFix" result="shape"/>
<feGaussianBlur stdDeviation="413.333" result="effect1_foregroundBlur_362_4982"/>
</filter>
<filter id="filter2_f_362_4982" x="717.247" y="705.667" width="1444.09" height="1446.67" filterUnits="userSpaceOnUse" color-interpolation-filters="sRGB">
<feFlood flood-opacity="0" result="BackgroundImageFix"/>
<feBlend mode="normal" in="SourceGraphic" in2="BackgroundImageFix" result="shape"/>
<feGaussianBlur stdDeviation="280" result="effect1_foregroundBlur_362_4982"/>
</filter>
<filter id="filter3_f_362_4982" x="0" y="583" width="1603.48" height="1584" filterUnits="userSpaceOnUse" color-interpolation-filters="sRGB">
<feFlood flood-opacity="0" result="BackgroundImageFix"/>
<feBlend mode="normal" in="SourceGraphic" in2="BackgroundImageFix" result="shape"/>
<feGaussianBlur stdDeviation="280" result="effect1_foregroundBlur_362_4982"/>
</filter>
</defs>
</svg>
