<svg width="32" height="41" viewBox="0 0 32 41" fill="none" xmlns="http://www.w3.org/2000/svg">
<path d="M11.6699 0.547998C11.8945 0.297802 12.1901 0.122142 12.5173 0.0445492C12.8445 -0.0330435 13.1876 -0.00886342 13.5007 0.113851C13.8138 0.236565 14.0818 0.451953 14.269 0.73116C14.4561 1.01037 14.5535 1.34006 14.5479 1.67608C14.5479 3.78347 14.5479 6.38673 14.4734 7.87431C14.4734 8.20308 14.6041 8.51839 14.8368 8.75087C15.0694 8.98335 15.3849 9.11395 15.7139 9.11395L19.3237 9.17593C19.6244 9.15564 19.925 9.21619 20.1943 9.3513C20.4637 9.4864 20.6918 9.69113 20.8552 9.9442C21.0185 10.1973 21.111 10.4894 21.1231 10.7903C21.1352 11.0912 21.0665 11.3899 20.924 11.6552C14.3866 23.3203 13.754 24.8203 9.99529 31.4896C9.80543 31.81 9.51472 32.0587 9.16856 32.1966C8.8224 32.3346 8.44026 32.3541 8.08181 32.2522C7.72336 32.1502 7.40878 31.9326 7.18718 31.6331C6.96558 31.3337 6.84943 30.9694 6.85686 30.597C6.85686 28.1177 6.77003 25.4773 6.708 24.3988C6.7084 24.233 6.66503 24.0701 6.58226 23.9264C6.4995 23.7828 6.38027 23.6635 6.23662 23.5806C5.89011 23.3821 5.50531 23.2596 5.10778 23.2211C4.1526 23.1467 2.91212 23.3327 1.77087 23.2211C0.369126 23.2211 -0.176686 21.6468 0.62963 20.3204C1.08861 19.465 8.81683 5.03552 11.6699 0.547998Z" fill="url(#paint0_linear_1_29659)"/>
<path d="M11.6699 0.547998C11.8945 0.297802 12.1901 0.122142 12.5173 0.0445492C12.8445 -0.0330435 13.1876 -0.00886342 13.5007 0.113851C13.8138 0.236565 14.0818 0.451953 14.269 0.73116C14.4561 1.01037 14.5535 1.34006 14.5479 1.67608C14.5479 3.78347 14.5479 6.38673 14.4734 7.87431C14.4734 8.20308 14.6041 8.51839 14.8368 8.75087C15.0694 8.98335 15.3849 9.11395 15.7139 9.11395L19.3237 9.17593C19.6244 9.15564 19.925 9.21619 20.1943 9.3513C20.4637 9.4864 20.6918 9.69113 20.8552 9.9442C21.0185 10.1973 21.111 10.4894 21.1231 10.7903C21.1352 11.0912 21.0665 11.3899 20.924 11.6552C14.3866 23.3203 13.754 24.8203 9.99529 31.4896C9.80543 31.81 9.51472 32.0587 9.16856 32.1966C8.8224 32.3346 8.44026 32.3541 8.08181 32.2522C7.72336 32.1502 7.40878 31.9326 7.18718 31.6331C6.96558 31.3337 6.84943 30.9694 6.85686 30.597C6.85686 28.1177 6.77003 25.4773 6.708 24.3988C6.7084 24.233 6.66503 24.0701 6.58226 23.9264C6.4995 23.7828 6.38027 23.6635 6.23662 23.5806C5.89011 23.3821 5.50531 23.2596 5.10778 23.2211C4.1526 23.1467 2.91212 23.3327 1.77087 23.2211C0.369126 23.2211 -0.176686 21.6468 0.62963 20.3204C1.08861 19.465 8.81683 5.03552 11.6699 0.547998Z" fill="url(#paint1_linear_1_29659)"/>
<path fill-rule="evenodd" clip-rule="evenodd" d="M20.8981 11.6682C21.0406 11.4029 21.1094 11.1042 21.0973 10.8033C21.0852 10.5024 20.9926 10.2103 20.8293 9.9572C20.666 9.70413 20.4378 9.4994 20.1685 9.3643C19.8991 9.22919 19.5985 9.16864 19.2979 9.18893L15.6881 9.12695C15.3591 9.12695 15.0435 8.99634 14.8109 8.76387C14.5783 8.53139 14.4476 8.21608 14.4476 7.8873C14.4476 6.37494 14.522 3.77168 14.522 1.68908C14.5276 1.35306 14.4303 1.02337 14.2431 0.744161C14.056 0.464953 13.7879 0.249566 13.4748 0.126852C13.1618 0.00413747 12.8187 -0.0200432 12.4915 0.0575495C12.1643 0.135142 11.8686 0.310802 11.6441 0.560998C9.52285 3.89565 4.68495 12.7591 2.14196 17.4202C1.27362 19.0193 0.678193 20.1226 0.541739 20.3457C-0.264576 21.6722 0.281235 23.1845 1.68298 23.2465C2.25733 23.2774 2.83292 23.2774 3.40726 23.2465C3.94418 23.2099 4.48296 23.2099 5.01988 23.2465C5.41742 23.285 5.80222 23.4075 6.14873 23.606C6.29238 23.6889 6.4116 23.8082 6.49437 23.9518C6.57713 24.0955 6.62051 24.2584 6.62011 24.4242C6.62011 25.5399 6.80619 28.2299 6.76897 30.6224C6.73088 31.0121 6.82969 31.4029 7.04846 31.7277C7.26723 32.0525 7.5923 32.2911 7.9679 32.4025C8.3435 32.514 8.7462 32.4913 9.10689 32.3384C9.46758 32.1855 9.76376 31.9119 9.94461 31.5645C11.52 28.7629 12.5372 26.8663 13.6661 24.7589C15.2911 21.7961 17.0898 18.4491 20.8981 11.6682ZM19.3227 10.9492L15.7005 10.8872C15.3127 10.8808 14.9301 10.7981 14.5744 10.6438C14.2186 10.4895 13.8968 10.2667 13.6272 9.98816C13.3577 9.70958 13.1457 9.38066 13.0034 9.02019C12.861 8.65972 12.7912 8.27477 12.7977 7.8873C12.7977 6.46171 12.8598 4.0444 12.8598 2.01138C11.4208 4.36671 9.01425 8.65588 6.831 12.6228L3.84143 18.0896C2.92347 19.7755 2.27842 20.978 2.12956 21.2135C2.06573 21.3109 2.02343 21.4208 2.0055 21.5358C2.42727 21.5358 2.88626 21.5358 3.41967 21.5358C4.01451 21.4983 4.61112 21.4983 5.20596 21.5358C5.85106 21.5957 6.47646 21.7899 7.04188 22.106C7.44282 22.3285 7.77925 22.651 8.01839 23.042C8.25753 23.4331 8.39121 23.8794 8.40641 24.3374C8.46844 25.4531 8.58008 28.1555 8.54287 30.6224C10.0563 27.92 11.0238 26.0605 12.1775 24.0027L12.8598 22.7631C14.2987 19.9862 16.0726 16.7632 19.3227 10.9492Z" fill="url(#paint2_linear_1_29659)"/>
<path d="M30.0646 22.9639C30.8833 22.6044 31.9129 23.7696 31.3051 24.7366C30.6972 25.7035 29.6801 27.0299 29.0722 27.9225C28.8916 28.1888 28.8217 28.5149 28.8772 28.8318C28.9328 29.1487 29.1095 29.4316 29.3699 29.6208L31.1066 30.8604C31.2844 30.9625 31.4321 31.1097 31.5348 31.2871C31.6376 31.4645 31.6916 31.6658 31.6916 31.8707C31.6916 32.0757 31.6376 32.277 31.5348 32.4544C31.4321 32.6318 31.2844 32.7789 31.1066 32.881C22.9194 36.9719 21.989 37.5917 17.3 39.947C17.0636 40.02 16.8107 40.0207 16.5738 39.949C16.337 39.8772 16.127 39.7363 15.971 39.5444C15.8149 39.3524 15.7199 39.1182 15.6981 38.8719C15.6763 38.6255 15.7287 38.3783 15.8486 38.1619C16.7294 36.9223 17.6225 35.4223 18.0567 34.6909C18.145 34.5519 18.1918 34.3907 18.1918 34.2261C18.1918 34.0614 18.145 33.9002 18.0567 33.7612C17.9492 33.5669 17.8061 33.3945 17.6349 33.2529C17.1139 32.8439 16.3945 32.4596 15.7122 32.0133C15.0299 31.567 15.2036 30.3522 16.1712 29.9059C16.779 29.5712 26.7029 24.3523 30.0646 22.9639Z" fill="url(#paint3_linear_1_29659)"/>
<path d="M30.0646 22.9639C30.8833 22.6044 31.9129 23.7696 31.3051 24.7366C30.6972 25.7035 29.6801 27.0299 29.0722 27.9225C28.8916 28.1888 28.8217 28.5149 28.8772 28.8318C28.9328 29.1487 29.1095 29.4316 29.3699 29.6208L31.1066 30.8604C31.2844 30.9625 31.4321 31.1097 31.5348 31.2871C31.6376 31.4645 31.6916 31.6658 31.6916 31.8707C31.6916 32.0757 31.6376 32.277 31.5348 32.4544C31.4321 32.6318 31.2844 32.7789 31.1066 32.881C22.9194 36.9719 21.989 37.5917 17.3 39.947C17.0636 40.02 16.8107 40.0207 16.5738 39.949C16.337 39.8772 16.127 39.7363 15.971 39.5444C15.8149 39.3524 15.7199 39.1182 15.6981 38.8719C15.6763 38.6255 15.7287 38.3783 15.8486 38.1619C16.7294 36.9223 17.6225 35.4223 18.0567 34.6909C18.145 34.5519 18.1918 34.3907 18.1918 34.2261C18.1918 34.0614 18.145 33.9002 18.0567 33.7612C17.9492 33.5669 17.8061 33.3945 17.6349 33.2529C17.1139 32.8439 16.3945 32.4596 15.7122 32.0133C15.0299 31.567 15.2036 30.3522 16.1712 29.9059C16.779 29.5712 26.7029 24.3523 30.0646 22.9639Z" fill="url(#paint4_linear_1_29659)"/>
<path fill-rule="evenodd" clip-rule="evenodd" d="M31.0816 32.8777C31.2594 32.7756 31.4072 32.6284 31.5099 32.451C31.6126 32.2736 31.6667 32.0723 31.6667 31.8674C31.6667 31.6624 31.6126 31.4611 31.5099 31.2837C31.4072 31.1063 31.2594 30.9592 31.0816 30.8571L29.345 29.6174C29.0884 29.4246 28.9167 29.14 28.8658 28.8233C28.8149 28.5066 28.8888 28.1825 29.0721 27.9191C29.6799 27.0513 30.5606 25.7745 31.2677 24.7084C31.9748 23.6423 30.8832 22.5762 30.0272 22.9357C27.5463 24.0142 21.4182 27.1753 18.193 28.8364L16.1586 29.8777C15.191 30.324 14.9181 31.4025 15.6996 31.9851C16.0097 32.2207 16.3571 32.4314 16.692 32.6422C17.013 32.8274 17.3236 33.0302 17.6224 33.2496C17.7936 33.3911 17.9366 33.5635 18.0441 33.7578C18.1324 33.8968 18.1792 34.0581 18.1792 34.2227C18.1792 34.3873 18.1324 34.5486 18.0441 34.6876C17.61 35.419 16.7168 36.8817 15.8361 38.1586C15.7161 38.3749 15.6637 38.6221 15.6855 38.8685C15.7073 39.1149 15.8023 39.3491 15.9584 39.541C16.1145 39.7329 16.3244 39.8738 16.5612 39.9456C16.7981 40.0174 17.051 40.0167 17.2874 39.9437C19.2474 38.9519 20.5499 38.2701 22.0137 37.4644C24.0109 36.4355 26.3182 35.233 31.0816 32.8777ZM22.1625 35.7289C23.9364 34.7991 26.1073 33.6835 29.8908 31.7868L28.5014 30.7951C27.9276 30.3837 27.5376 29.7644 27.4148 29.0694C27.2919 28.3745 27.446 27.6591 27.844 27.0761L29.3326 24.9068C27.5835 25.7373 25.1149 26.977 22.8076 28.1546L19.0861 30.0885L17.1014 31.105L17.5479 31.3777C17.9112 31.589 18.2593 31.8251 18.5899 32.0843C18.9025 32.332 19.1673 32.6344 19.3714 32.9769C19.6021 33.3493 19.7243 33.7785 19.7243 34.2165C19.7243 34.6545 19.6021 35.0838 19.3714 35.4561C19.0365 36.014 18.4163 37.0305 17.734 38.0718L21.3438 36.1999L22.1625 35.7289Z" fill="url(#paint5_linear_1_29659)"/>
<defs>
<linearGradient id="paint0_linear_1_29659" x1="18.0212" y1="3.91984" x2="5.70314" y2="24.654" gradientUnits="userSpaceOnUse">
<stop stop-color="#FFFD54"/>
<stop offset="1" stop-color="#FFBC00"/>
</linearGradient>
<linearGradient id="paint1_linear_1_29659" x1="-1.57843" y1="11.4569" x2="13.3667" y2="17.2901" gradientUnits="userSpaceOnUse">
<stop stop-color="white"/>
<stop offset="1" stop-color="white" stop-opacity="0"/>
</linearGradient>
<linearGradient id="paint2_linear_1_29659" x1="4.74698" y1="23.2713" x2="14.539" y2="11.6121" gradientUnits="userSpaceOnUse">
<stop stop-color="#F5BE41" stop-opacity="0.8"/>
<stop offset="0.56" stop-color="#F8D147" stop-opacity="0.56"/>
<stop offset="1" stop-color="#FFFD54" stop-opacity="0"/>
</linearGradient>
<linearGradient id="paint3_linear_1_29659" x1="1516.58" y1="1194.43" x2="1316.44" y2="1104.35" gradientUnits="userSpaceOnUse">
<stop stop-color="#FFFD54"/>
<stop offset="1" stop-color="#FFBC00"/>
</linearGradient>
<linearGradient id="paint4_linear_1_29659" x1="1326.77" y1="1251.22" x2="1420.62" y2="1115.32" gradientUnits="userSpaceOnUse">
<stop stop-color="white"/>
<stop offset="1" stop-color="white" stop-opacity="0"/>
</linearGradient>
<linearGradient id="paint5_linear_1_29659" x1="16.9029" y1="33.2124" x2="24.3203" y2="31.2513" gradientUnits="userSpaceOnUse">
<stop stop-color="#F5BE41" stop-opacity="0.8"/>
<stop offset="1" stop-color="#FFFD54" stop-opacity="0"/>
</linearGradient>
</defs>
</svg>
