<svg width="103" height="32" viewBox="0 0 103 32" fill="none" xmlns="http://www.w3.org/2000/svg">
<path fill-rule="evenodd" clip-rule="evenodd" d="M11.4104 18.0693C11.264 18.5146 11.0282 18.8398 10.7029 19.0456C10.4107 19.2386 9.99179 19.3684 9.44728 19.4346C8.87581 19.5148 7.9791 19.554 6.75654 19.554C5.8531 19.554 5.11197 19.5173 4.53437 19.4444C3.98986 19.3715 3.5807 19.2618 3.30875 19.1155C3.11581 19.0028 2.95656 18.8698 2.83039 18.7173C2.69747 18.5575 2.5909 18.3651 2.51127 18.1391C2.33854 17.6675 2.25218 16.93 2.25218 15.9268C2.25218 15.0833 2.33181 14.4353 2.49106 13.9839C2.64418 13.5515 2.87694 13.2262 3.1887 13.0069C3.468 12.8207 3.89676 12.6915 4.47435 12.618C5.12544 12.5384 6.08217 12.4986 7.34455 12.4986C8.14815 12.4986 8.8458 12.5384 9.43748 12.618C9.97526 12.6976 10.3642 12.8073 10.6031 12.9469C10.7954 13.0596 10.9553 13.1895 11.0814 13.3359C11.2211 13.5019 11.3271 13.6911 11.4006 13.9037C11.5733 14.3753 11.6596 15.0993 11.6596 16.0762C11.6596 16.9398 11.5763 17.6044 11.4104 18.0693ZM13.6527 13.0265C13.5063 12.6284 13.2975 12.2732 13.0249 11.9602C12.7524 11.6417 12.4271 11.3722 12.048 11.1535C11.55 10.8613 10.9253 10.6617 10.1749 10.5551C9.424 10.4559 8.35457 10.4062 6.96602 10.4062C6.15506 10.4062 5.45436 10.4289 4.86329 10.4755C4.25201 10.5288 3.78712 10.6047 3.468 10.7052C3.10234 10.8179 2.7771 10.9808 2.49106 11.1933C2.42491 11.2466 2.35814 11.306 2.29199 11.3722V10.8742C2.29199 10.7811 2.25892 10.7015 2.19216 10.6353C2.126 10.5686 2.04944 10.5355 1.96308 10.5355H0.338715C0.245614 10.5355 0.162926 10.5686 0.0894258 10.6353C0.0300127 10.6954 0 10.7744 0 10.8742V24.9055C0 25.0047 0.0300127 25.0849 0.0894258 25.145C0.162926 25.2111 0.245614 25.2442 0.338715 25.2442H1.96308C2.04944 25.2442 2.126 25.2111 2.19216 25.145C2.25892 25.0782 2.29199 24.998 2.29199 24.9055V20.73C2.63745 21.0222 3.04292 21.2347 3.50782 21.3676C3.83367 21.4675 4.28202 21.5404 4.85349 21.5869C5.39801 21.6335 6.04236 21.6567 6.78655 21.6567C7.81617 21.6567 8.69328 21.6267 9.41726 21.5667C10.1682 21.5073 10.7495 21.4142 11.1611 21.288C11.6064 21.1551 12.0082 20.9524 12.3671 20.6798C12.7321 20.4011 13.0415 20.0624 13.2938 19.6636C13.5529 19.2716 13.7452 18.7602 13.872 18.1293C13.9982 17.5376 14.0613 16.84 14.0613 16.0364C14.0613 14.7538 13.9247 13.7511 13.6527 13.0265Z" fill="#0D7FC3"/>
<path fill-rule="evenodd" clip-rule="evenodd" d="M26.6485 18.8832C26.5486 19.0424 26.3888 19.1655 26.1701 19.2519C25.9306 19.3585 25.5356 19.4381 24.9837 19.4908C24.4527 19.5373 23.7421 19.5606 22.8516 19.5606C21.2768 19.5606 20.1572 19.5214 19.4932 19.4411C19.2604 19.4215 19.0847 19.3909 18.9652 19.3511L18.8256 19.3119C18.6326 19.2188 18.4899 19.089 18.3968 18.923C18.3043 18.7435 18.2578 18.5144 18.2578 18.2351C18.2578 17.943 18.2976 17.7004 18.3766 17.5075C18.4636 17.3354 18.5793 17.2055 18.7263 17.1191C18.8323 17.0659 18.9517 17.026 19.0847 16.9997C19.2574 16.9599 19.4736 16.9262 19.7327 16.8999C20.2441 16.8533 21.1739 16.8307 22.5226 16.8307C23.4794 16.8307 24.2334 16.8601 24.7846 16.9201C25.3696 16.9728 25.8044 17.053 26.0905 17.159C26.3294 17.2521 26.5088 17.3819 26.6283 17.5479C26.7416 17.7071 26.7979 17.9234 26.7979 18.1953C26.7979 18.4679 26.7477 18.697 26.6485 18.8832ZM29.1695 14.1595C29.1493 13.7608 29.1065 13.4049 29.0397 13.0938C28.9203 12.5413 28.6581 12.0568 28.2526 11.6384C27.7743 11.1466 27.1103 10.811 26.2595 10.6315C25.8608 10.5525 25.3396 10.4925 24.6952 10.4526C24.0104 10.4055 23.2503 10.3828 22.413 10.3828C21.2701 10.3828 20.314 10.4324 19.5428 10.5323C18.7594 10.6382 18.1414 10.7975 17.6894 11.01C17.2177 11.2428 16.8656 11.5717 16.6334 11.9974C16.4007 12.4157 16.2843 12.9235 16.2843 13.5213L16.3045 14.0101C16.318 14.0897 16.3541 14.1595 16.4141 14.2189C16.4803 14.279 16.5569 14.309 16.6432 14.309H18.3374C18.4366 14.309 18.5169 14.279 18.5763 14.2189C18.643 14.1528 18.6761 14.0695 18.6761 13.9703V13.8306C18.6761 13.5317 18.7263 13.2959 18.8256 13.1232C18.9119 12.97 19.0516 12.8543 19.2439 12.774C19.337 12.7342 19.4828 12.695 19.6825 12.6546L20.3899 12.5548C20.9479 12.5088 21.6621 12.4855 22.5324 12.4855C23.2038 12.4855 23.7752 12.5021 24.2468 12.5352C24.705 12.5682 25.0805 12.6117 25.3726 12.6644C25.6581 12.7312 25.8847 12.8138 26.0507 12.9137C26.243 13.0203 26.3925 13.1434 26.499 13.2824C26.6319 13.4417 26.7318 13.6609 26.7979 13.9402C26.8708 14.2459 26.9076 14.6146 26.9076 15.0464V15.4648C26.8212 15.3919 26.7318 15.3257 26.6387 15.2657C26.3459 15.093 26.0207 14.9699 25.6617 14.897C25.3298 14.8437 24.8048 14.7971 24.087 14.7573C23.3832 14.7242 22.503 14.7077 21.4465 14.7077C20.6429 14.7077 19.9783 14.7242 19.4534 14.7573C18.9156 14.7904 18.4532 14.8437 18.0685 14.9166C17.8358 14.9564 17.6263 15.0164 17.4407 15.096V15.1064C17.1479 15.2259 16.9023 15.3723 16.7032 15.5444C16.4968 15.7306 16.3278 15.9529 16.1949 16.212C15.956 16.6971 15.8359 17.3617 15.8359 18.2051C15.8359 18.8899 15.9156 19.4381 16.0754 19.8497C16.2347 20.268 16.5232 20.6239 16.9421 20.9161C17.1412 21.0753 17.3972 21.2082 17.7096 21.3148C17.995 21.4146 18.3239 21.4875 18.6963 21.5341H18.7055C19.0448 21.5733 19.5428 21.607 20.2006 21.6333C21.0379 21.6535 21.8054 21.6633 22.503 21.6633C23.2601 21.6633 23.9345 21.6431 24.5255 21.6039C25.1172 21.5506 25.549 21.4875 25.8216 21.4146C26.2332 21.2946 26.6013 21.0918 26.9272 20.8064L26.9076 21.1849C26.9076 21.2713 26.9406 21.3546 27.0068 21.4342C27.0803 21.5004 27.163 21.5341 27.2561 21.5341H28.8804C28.9668 21.5341 29.0428 21.5004 29.1101 21.4342C29.183 21.3675 29.2192 21.2878 29.2192 21.1947V15.7539C29.2192 15.1358 29.2026 14.6048 29.1695 14.1595Z" fill="#0D7FC3"/>
<path fill-rule="evenodd" clip-rule="evenodd" d="M32.6461 10.7081L37.45 19.3481L41.8839 10.7185C41.9507 10.5991 42.0505 10.5391 42.1835 10.5391H44.0963C44.2225 10.5391 44.3193 10.5917 44.3854 10.6989C44.4516 10.8178 44.4552 10.9274 44.3958 11.0272L39.3733 20.624V20.6338C38.7553 21.7969 38.2769 22.6207 37.9382 23.1058C37.5725 23.6167 37.164 24.0319 36.7126 24.351C36.2875 24.6432 35.822 24.846 35.3173 24.9587C34.8456 25.0585 34.1676 25.1118 33.2844 25.1185C32.9187 25.1185 32.6033 25.1118 32.3374 25.0983C32.2511 25.0916 32.1782 25.0585 32.1182 24.9991C32.052 24.9323 32.0183 24.8527 32.0183 24.7596V23.2645C32.0183 23.1652 32.0551 23.0819 32.128 23.0158C32.2015 22.9558 32.2909 22.9294 32.3975 22.9362C32.67 22.9625 32.9089 22.9754 33.1147 22.9754C33.6329 22.9754 34.0714 22.9429 34.4304 22.8761C34.7819 22.8161 35.0514 22.7334 35.2376 22.6268V22.617C35.4104 22.5239 35.6064 22.3445 35.825 22.0787C35.9512 21.9194 36.0847 21.7301 36.2238 21.5109C36.1178 21.4974 36.0278 21.441 35.9549 21.3412L30.1551 11.0474C30.0889 10.9347 30.0889 10.8178 30.1551 10.6989C30.2212 10.5917 30.318 10.5391 30.4442 10.5391H32.3576C32.4832 10.5391 32.58 10.5954 32.6461 10.7081Z" fill="#0D7FC3"/>
<path d="M38.8001 28.0001H39.1725C43.6573 28.0001 47.464 27.5885 50.5927 26.7646C50.8187 26.6979 51.0416 26.6354 51.2603 26.5754C55.5387 25.3191 57.9072 23.3095 58.366 20.5459C58.5185 19.6492 58.173 18.6894 57.3296 17.6665C56.9297 17.1814 56.3563 16.6246 55.6164 16.0005H55.6171C55.2593 15.7212 54.8649 15.4253 54.4325 15.1117C52.8112 13.9357 51.7852 13.1486 51.3534 12.7499C50.45 11.9132 50.0475 11.1923 50.1474 10.5878C50.5259 8.30924 53.1866 6.58811 58.1295 5.42557C58.6612 5.2994 59.2192 5.17996 59.8035 5.06664C59.8911 5.05011 59.9781 5.03663 60.0657 5.02009C60.5134 4.93679 60.9599 4.85778 61.4058 4.7855C61.7537 4.72977 62.1004 4.68015 62.4471 4.63176C62.6131 4.60726 62.7785 4.58338 62.9438 4.56133C63.3812 4.50375 63.8173 4.45169 64.2528 4.40453C64.306 4.3984 64.3599 4.39289 64.4132 4.38738C64.8941 4.33654 65.3743 4.29182 65.8532 4.25385V4.25017C65.8545 4.24956 65.852 4.25385 65.8532 4.25385C65.9218 4.25385 65.9812 4.19382 65.9812 4.12522C65.9812 4.05601 65.9255 4.00027 65.8569 4.00027C65.8545 4.00027 65.8581 3.99966 65.8569 4.00027C65.7375 3.99966 65.618 4.00027 65.4937 4.00027H65.487C65.4833 4.00027 65.4808 4.00088 65.4772 4.00088C65.4073 4.00088 65.3418 4.00272 65.2726 4.00333C64.785 4.00456 64.3024 4.00885 63.8307 4.01987C63.5594 4.02661 63.2979 4.03947 63.0314 4.04927C62.7705 4.05846 62.5041 4.0652 62.248 4.07806C59.139 4.23241 56.4109 4.61829 54.0644 5.23631C53.8383 5.30307 53.616 5.36555 53.3961 5.42557C49.1184 6.68121 46.7498 8.69083 46.2911 11.4545C46.1379 12.3518 46.484 13.3116 47.3274 14.3345C47.7274 14.8196 48.3007 15.3757 49.0406 16.0005H49.04C49.3977 16.2798 49.7921 16.5756 50.2246 16.8892C51.8452 18.0646 52.8718 18.8523 53.3036 19.2504C54.2071 20.0877 54.6095 20.8086 54.5096 21.4132C54.1311 23.6917 51.4704 25.4122 46.5275 26.5754C45.9958 26.7015 45.4378 26.821 44.8535 26.9343C44.7659 26.9508 44.6783 26.9643 44.5914 26.9802C44.1436 27.0635 43.6971 27.1432 43.2518 27.2154C42.9033 27.2712 42.5566 27.3202 42.2099 27.3692C42.0446 27.3931 41.8786 27.4176 41.7132 27.4396C41.2759 27.4972 40.8398 27.5493 40.4043 27.5964C40.351 27.6019 40.2971 27.6081 40.2432 27.6136C39.763 27.6638 38.8038 27.7471 38.8001 27.7471C38.7315 27.7471 38.6758 27.8071 38.6758 27.8757C38.6758 27.9443 38.7315 28.0001 38.8001 28.0001Z" fill="#F37520"/>
<path d="M62.7033 14.6619C62.7492 14.3361 62.8258 14.047 62.9317 13.7946C63.0518 13.4957 63.2178 13.2636 63.4303 13.097L63.4407 13.0872C63.7127 12.8746 64.0949 12.7283 64.5861 12.6486C65.1312 12.5488 65.9189 12.4992 66.9479 12.4992C68.1441 12.4992 69.0439 12.5488 69.6484 12.6486C70.2328 12.7485 70.6713 12.9145 70.9641 13.1472C71.1766 13.3132 71.3396 13.5392 71.4523 13.8246C71.5454 14.0703 71.6054 14.3496 71.6317 14.6619H62.7033ZM74.0138 16.6348C74.0866 16.5687 74.1228 16.489 74.1228 16.3953C74.1032 15.1532 74.0205 14.2197 73.8741 13.5956C73.721 12.9641 73.4257 12.3963 72.9872 11.8916C72.4617 11.2938 71.7714 10.895 70.9145 10.696C70.5157 10.5961 69.9841 10.5226 69.3201 10.4761C68.6623 10.4295 67.8881 10.4062 66.9981 10.4062C66.0347 10.4062 65.2274 10.4399 64.5763 10.5061C63.8989 10.5661 63.3439 10.6653 62.9121 10.805C62.4607 10.9514 62.0754 11.1609 61.7563 11.4328C61.4243 11.6986 61.1414 12.0343 60.9092 12.4398C60.6697 12.8514 60.4903 13.3665 60.3708 13.9845C60.2575 14.5688 60.2012 15.2597 60.2012 16.0566C60.2012 17.1799 60.3347 18.1299 60.5999 18.9072C60.8927 19.7041 61.3276 20.3086 61.9058 20.7208C62.4105 21.073 63.1345 21.3186 64.0783 21.4583C65.0216 21.5906 66.3501 21.6573 68.0639 21.6573C69.1205 21.6573 70.0239 21.5979 70.7748 21.4779C71.5588 21.3382 72.1762 21.1392 72.6283 20.8801C73.1066 20.5947 73.4649 20.2094 73.7044 19.7243C73.9507 19.2527 74.0799 18.6812 74.0934 18.0099C74.0934 17.9107 74.0597 17.8304 73.9935 17.771C73.9268 17.7042 73.8508 17.6712 73.7645 17.6712H72.0501C71.9576 17.6712 71.881 17.6975 71.821 17.7508C71.761 17.8176 71.7248 17.8904 71.7113 17.9701C71.6844 18.2163 71.6452 18.4154 71.5919 18.5685C71.5454 18.721 71.489 18.8337 71.4222 18.9072C71.4222 18.9139 71.4192 18.917 71.4124 18.917C71.2997 19.0297 71.1668 19.1228 71.0137 19.1957C70.8349 19.2888 70.6254 19.3586 70.3859 19.4052C69.8677 19.505 69.0341 19.5546 67.885 19.5546C67.1739 19.5546 66.513 19.5448 65.9017 19.5246C65.3768 19.4915 64.9389 19.445 64.5861 19.385H64.5965C64.3037 19.3384 64.0348 19.2625 63.7892 19.1565C63.5565 19.0432 63.3868 18.9268 63.2808 18.8074C63.0812 18.6083 62.9287 18.3155 62.8227 17.9303C62.7296 17.605 62.6665 17.2063 62.6334 16.7346H73.7743C73.8741 16.7346 73.9537 16.701 74.0138 16.6348Z" fill="#F37520"/>
<path d="M86.7383 11.2638C86.3598 10.9379 85.8845 10.7088 85.3136 10.5759C84.782 10.4632 84.001 10.4062 82.9714 10.4062C82.6131 10.4062 82.2872 10.4099 81.9951 10.4167C81.4432 10.4295 80.9918 10.4565 80.6396 10.4963C80.0884 10.5557 79.6363 10.6788 79.2841 10.865C78.9852 11.0175 78.7268 11.2007 78.5069 11.4126V10.8748C78.5069 10.7817 78.4738 10.7021 78.4076 10.6359C78.3341 10.5692 78.2515 10.5361 78.1584 10.5361H76.534C76.4476 10.5361 76.3717 10.5692 76.3049 10.6359C76.2388 10.7021 76.2051 10.7817 76.2051 10.8748V21.1888C76.2051 21.2819 76.2388 21.3615 76.3049 21.4283C76.3717 21.4944 76.4476 21.5275 76.534 21.5275H78.1584C78.2515 21.5275 78.3341 21.4944 78.4076 21.4283C78.4738 21.3615 78.5069 21.2819 78.5069 21.1888V16.4259C78.5069 15.7742 78.5436 15.2034 78.6171 14.7115C78.69 14.2399 78.796 13.8645 78.9356 13.5858C79.022 13.4124 79.1182 13.2801 79.2247 13.187C79.338 13.0872 79.4906 12.9941 79.6829 12.9077C79.896 12.8214 80.1453 12.7485 80.4301 12.6884C80.876 12.596 81.3973 12.5359 81.9951 12.5096C82.2407 12.5029 82.5029 12.4992 82.7822 12.4992C83.3934 12.4992 83.9153 12.5457 84.3465 12.6388C84.7189 12.7185 84.9847 12.8348 85.144 12.988C85.2897 13.127 85.3933 13.3132 85.4533 13.5453V13.5557C85.5262 13.8479 85.5623 14.2528 85.5623 14.7716V15.509C85.5623 15.5954 85.5954 15.675 85.6622 15.7479C85.7283 15.8147 85.8085 15.8477 85.9016 15.8477H87.5652C87.6589 15.8477 87.7385 15.8147 87.8047 15.7479C87.8782 15.675 87.9143 15.5954 87.9143 15.509V14.442C87.9015 13.7052 87.8047 13.0872 87.6252 12.5892C87.4329 12.0508 87.1371 11.6092 86.7383 11.2638Z" fill="#F37520"/>
<path d="M99.9929 18.8832C99.8998 19.0424 99.7436 19.1655 99.5249 19.2519C99.2787 19.3585 98.8867 19.4381 98.3489 19.4908C97.8105 19.5373 97.1 19.5606 96.2162 19.5606C94.6353 19.5606 93.512 19.5208 92.848 19.4411C92.6287 19.4215 92.453 19.3909 92.3194 19.3511L92.17 19.3119C91.9777 19.2121 91.838 19.0822 91.7516 18.923C91.6524 18.73 91.6022 18.501 91.6022 18.2351C91.6022 17.9564 91.6457 17.7139 91.7314 17.5075C91.8178 17.3354 91.9378 17.2055 92.091 17.1191C92.17 17.0726 92.29 17.0328 92.4493 16.9997C92.6153 16.9532 92.8284 16.9201 93.0875 16.8999C93.6118 16.8533 94.5422 16.8307 95.8775 16.8307C96.8409 16.8307 97.5949 16.8601 98.1395 16.9201C98.7311 16.9734 99.1666 17.053 99.4453 17.159C99.6909 17.2521 99.8735 17.3819 99.9929 17.5479C100.106 17.7071 100.163 17.9234 100.163 18.1953C100.163 18.4746 100.106 18.7037 99.9929 18.8832ZM102.524 14.1595C102.505 13.7608 102.464 13.4049 102.405 13.0938C102.279 12.5352 102.01 12.0501 101.598 11.6384H101.608C101.122 11.1466 100.461 10.811 99.6242 10.6315C99.2193 10.5457 98.6944 10.4857 98.05 10.4526C97.3726 10.4061 96.6119 10.3828 95.7678 10.3828C94.6249 10.3828 93.6718 10.4324 92.9074 10.5323C92.124 10.6382 91.506 10.7975 91.054 11.01C90.5824 11.2428 90.2271 11.5717 89.9882 11.9974C89.7555 12.4157 89.6391 12.9235 89.6391 13.5213L89.6691 14.0101C89.6753 14.0964 89.712 14.1663 89.7788 14.2189C89.8388 14.279 89.9117 14.309 89.998 14.309H91.702C91.7951 14.309 91.8754 14.279 91.9409 14.2189C92.0009 14.1528 92.0309 14.0695 92.0309 13.9703V13.8306C92.0309 13.5317 92.0806 13.2959 92.1804 13.1232C92.2735 12.9633 92.4131 12.8475 92.5987 12.774C92.679 12.741 92.8248 12.7011 93.0379 12.6546L93.7447 12.5548C94.3027 12.5088 95.0206 12.4855 95.8977 12.4855C96.5616 12.4855 97.1331 12.5021 97.6115 12.5352C98.0702 12.5682 98.4384 12.6117 98.7177 12.6644H98.7275C99.0061 12.7312 99.2328 12.8138 99.4049 12.9137C99.5978 13.0203 99.7473 13.1434 99.8539 13.2824C99.98 13.4349 100.083 13.6542 100.163 13.9402C100.236 14.2459 100.272 14.6146 100.272 15.0464V15.4648C100.179 15.3919 100.087 15.3257 99.9929 15.2657C99.7007 15.093 99.3755 14.9699 99.0166 14.897C98.6711 14.8437 98.1462 14.7971 97.4418 14.7573C96.7442 14.7242 95.8609 14.7077 94.7915 14.7077C93.994 14.7077 93.3331 14.7242 92.8082 14.7573C92.2698 14.7904 91.8086 14.8437 91.4227 14.9166C91.1967 14.9564 90.9915 15.0164 90.8047 15.096V15.1064C90.5132 15.2192 90.2669 15.3649 90.0673 15.5444C89.8615 15.7306 89.6893 15.9529 89.5497 16.212C89.3169 16.6971 89.2012 17.3617 89.2012 18.2051C89.2012 18.8899 89.2771 19.4381 89.4302 19.8497C89.5895 20.2686 89.8817 20.627 90.3074 20.9259C90.5058 21.079 90.7582 21.2082 91.0644 21.3148C91.3437 21.4146 91.672 21.4875 92.0505 21.5335C92.4027 21.5733 92.9044 21.607 93.5555 21.6333C94.3995 21.6535 95.17 21.6633 95.8677 21.6633C96.6253 21.6633 97.296 21.6431 97.8804 21.6039C98.4782 21.5506 98.91 21.4875 99.1758 21.4146C99.5813 21.2946 99.95 21.0918 100.282 20.8064L100.272 21.1849C100.272 21.2842 100.302 21.3675 100.362 21.4342C100.442 21.5004 100.521 21.5335 100.6 21.5335H102.235C102.328 21.5335 102.408 21.5004 102.474 21.4342C102.541 21.3675 102.574 21.2878 102.574 21.1947V15.7539C102.574 15.1358 102.557 14.6048 102.524 14.1595Z" fill="#F37520"/>
</svg>
