<svg width="583" height="152" viewBox="0 0 583 152" fill="none" xmlns="http://www.w3.org/2000/svg">
<path d="M125.317 60.8479C121.528 59.7162 118.29 60.4137 115.093 62.5718C111.698 58.4398 108.105 55.7027 104.329 54.5578C100.539 53.4262 96.8804 53.992 93.0511 55.9659C90.2877 52.0181 87.1295 49.4126 83.3397 48.2678C79.563 47.1492 75.4705 47.5835 70.9964 49.36C68.8646 45.6096 66.1275 43.1225 62.3508 41.9908C58.5741 40.8723 54.0605 41.175 48.9548 42.7673C47.4678 39.2011 45.1386 36.8456 41.3619 35.7139C30.453 32.1215 10.3853 44.6753 2.41084 69.7435C-4.70826 95.0617 5.14794 116.577 16.2411 119.577C20.031 120.709 23.2681 120.012 26.4658 117.853C29.8608 121.985 33.4533 124.722 37.23 125.867C41.0198 126.999 44.6781 126.433 48.5074 124.459C51.2708 128.394 54.4422 131.013 58.2188 132.157C61.9955 133.289 66.088 132.842 70.5621 131.065C72.6939 134.816 75.431 137.303 79.2077 138.434C82.9844 139.553 87.498 139.25 92.6037 137.658C94.0907 141.211 96.4199 143.58 100.197 144.711C111.105 148.304 129.476 135.25 137.45 110.182C144.569 84.8502 136.397 63.8482 125.317 60.8479Z" fill="#070E14"/>
<path d="M68.6834 51.8655C67.5912 47.5493 76.7631 49.0494 80.8819 38.4037C83.4743 31.6925 90.317 12.4275 102.989 13.5724L103.753 17.2438C103.753 17.2438 96.1465 15.6252 91.6856 29.1528C83.8559 52.9446 96.9887 53.7604 95.7123 59.3531C94.4622 64.8141 69.7887 56.1685 68.6834 51.8655Z" fill="#070E14"/>
<path d="M63.5381 56.6328L41.207 70.0025L63.775 73.2791L63.5381 56.6328Z" fill="#FA4A00"/>
<path d="M93.5944 65.6406L104.898 89.0903L84.2383 79.4051L93.5944 65.6406Z" fill="#FA4A00"/>
<path d="M75.1621 97.416L72.2802 82.125L61.4766 93.3103L75.1621 97.416Z" fill="#FA4A00"/>
<path d="M88.0299 111.234L83.5295 116.458L84.8322 111.102C82.2136 110.931 79.0817 110.549 75.4103 109.839L71.0414 114.958L72.4231 109.22C70.0808 108.694 67.5806 108.036 64.8566 107.233C62.0669 106.404 59.5666 105.549 57.2769 104.694L55.2768 110.247L54.4477 103.601C50.9474 102.167 48.1313 100.785 45.8548 99.5088L44.0257 104.654L43.1572 97.8902C39.3147 95.4295 37.8672 93.7188 37.8672 93.7188C38.2883 98.3245 40.6043 104.483 45.7232 109.799L49.1972 105.115L47.6181 111.615C50.2763 113.944 53.5529 116.037 57.5533 117.655L63.9223 110.839L65.133 119.905C69.3176 120.695 73.2258 120.695 76.7657 120.156L78.9632 114.036L79.2264 119.682C86.7008 117.945 92.2277 113.944 94.6884 110.747C94.6753 110.72 92.4645 111.273 88.0299 111.234Z" fill="#FA4A00"/>
<path d="M547.527 31.4122C543.645 32.1886 541.118 34.3072 539.289 37.7023C534.354 35.6363 529.907 34.8862 526.038 35.6363C522.169 36.4127 519.195 38.6103 516.721 42.1369C512.444 39.9394 508.418 39.1103 504.549 39.8604C500.68 40.6368 497.272 42.9265 494.14 46.5847C490.508 44.2556 486.929 43.3476 483.047 44.0977C479.178 44.8609 475.336 47.2427 471.559 51.0325C468.572 48.5849 465.427 47.5717 461.545 48.3349C450.228 50.2561 438.332 70.7186 442.977 96.6027C448.491 122.329 467.256 136.751 478.467 134.225C482.349 133.448 484.876 131.33 486.705 127.935C491.64 130.001 496.087 130.751 499.956 130.001C503.825 129.224 506.799 127.027 509.273 123.5C513.55 125.698 517.576 126.527 521.445 125.777C525.314 125.013 528.722 122.71 531.854 119.052C535.486 121.381 539.065 122.289 542.947 121.539C546.816 120.776 550.659 118.394 554.435 114.604C557.422 117.052 560.567 118.065 564.449 117.302C575.766 115.381 585.938 95.2605 581.28 69.3764C575.766 43.6502 558.725 28.8857 547.527 31.4122Z" fill="#070E14"/>
<path d="M493.247 49.8864C490.26 46.5834 499.076 43.6226 497.747 32.2794C496.918 25.134 493.971 4.90837 505.709 0L508.09 2.89501C508.09 2.89501 500.603 5.01365 502.985 19.0676C507.169 43.7542 519.157 38.359 520.644 43.899C522.092 49.3074 496.234 53.1893 493.247 49.8864Z" fill="#070E14"/>
<path d="M490.911 56.5234L477.41 78.7624L498.899 71.1301L490.911 56.5234Z" fill="#FA4A00"/>
<path d="M521.706 50.4609L542.642 65.9229L519.863 67.002L521.706 50.4609Z" fill="#FA4A00"/>
<path d="M520.231 87.1722L510.546 75L506.203 89.9356L520.231 87.1722Z" fill="#FA4A00"/>
<path d="M538.058 93.3786L536.518 100.103L535.176 94.7604C532.781 95.8262 529.833 96.9448 526.254 98.037L524.78 104.603L523.319 98.8792C521.003 99.4976 518.477 100.103 515.7 100.642C512.845 101.208 510.226 101.629 507.818 101.932L508.634 107.775L504.791 102.274C501.028 102.643 497.883 102.722 495.277 102.656L496.054 108.064L492.132 102.485C487.592 102.103 485.5 101.274 485.5 101.274C488.027 105.156 492.948 109.525 499.949 111.828L500.844 106.064L502.488 112.552C505.923 113.367 509.805 113.696 514.095 113.262L516.542 104.261L521.846 111.709C525.912 110.459 529.373 108.63 532.241 106.498L531.32 100.063L534.202 104.932C540.005 99.9056 543.019 93.7866 543.703 89.8125C543.69 89.8257 542.005 91.3521 538.058 93.3786Z" fill="#FA4A00"/>
<path d="M327.372 49.9097C324.056 48.8569 320.911 49.936 318.121 52.8968C315.345 48.8043 312.147 46.0935 308.752 45.5803C305.344 45.0539 302.12 46.8041 299.291 50.3439C296.461 46.4225 293.224 44.1328 289.79 44.1328C286.355 44.1328 283.118 46.4225 280.289 50.3439C277.46 46.8041 274.236 45.0539 270.827 45.5803C267.419 46.1067 264.235 48.8175 261.458 52.8968C258.682 49.9491 255.523 48.8569 252.22 49.9097C241.39 54.1469 233.113 75.2937 233.113 94.6508C233.113 114.021 241.39 135.168 252.22 139.405C255.536 140.458 258.682 139.379 261.458 136.418C264.235 140.51 267.432 143.221 270.827 143.748C274.236 144.274 277.46 142.524 280.289 138.984C283.118 142.905 286.355 145.208 289.79 145.195C293.224 145.195 296.461 142.905 299.291 138.984C302.12 142.524 305.344 144.274 308.752 143.748C312.16 143.221 315.345 140.51 318.121 136.418C320.898 139.366 324.056 140.458 327.372 139.405C338.202 135.168 346.479 114.021 346.479 94.6508C346.466 75.2937 338.189 54.1469 327.372 49.9097Z" fill="#070E14"/>
<path d="M285.094 54.9846C288.936 -0.204869 315.505 10.7304 311.504 27.8241C311.096 29.5743 307.899 28.4821 308.096 27.0477C309.254 18.718 298.556 9.91452 295.068 37.0355C294.292 43.2335 295.371 49.2604 295.542 55.3004L285.094 54.9846Z" fill="#070E14"/>
<path d="M295.036 98.0701L289.786 87.9375L284.535 98.0701H295.036Z" fill="#FA4A00"/>
<path d="M312.144 107.55L308.815 103.181C304.328 104.155 299.262 104.984 293.629 105.3L289.853 111.708L286.01 105.392C281.813 105.26 277.365 104.8 272.641 103.918L269.877 107.55C264.864 106.353 260.718 103.537 255.547 99.3125C255.547 99.3125 256.034 100.549 257.047 102.537C260.942 110.261 268.14 115.38 276.47 117.959L279.312 114.064L282.431 119.314C288.34 120.249 294.511 120.012 300.314 118.604L303.486 113.603L305.828 116.867C314.026 113.617 320.843 107.774 323.975 99.3125C317.737 105.392 312.144 107.55 312.144 107.55Z" fill="#FA4A00"/>
<path d="M284.183 80.0413C284.183 80.0413 261.062 75.4751 254.035 69.4219C254.035 69.4219 264.655 100.201 284.183 80.0413Z" fill="#FA4A00"/>
<path d="M295.383 80.0413C295.383 80.0413 318.503 75.4751 325.53 69.4219C325.544 69.4219 314.911 100.201 295.383 80.0413Z" fill="#FA4A00"/>
<path d="M435.27 68.8344C433.48 68.5449 431.862 68.5975 430.388 68.9396C427.467 64.7024 423.716 61.9258 419.374 61.2415C416.031 60.7152 412.649 61.4521 409.399 63.2417C406.596 58.965 403.017 56.2147 398.859 55.5568C394.345 54.8462 389.739 56.6753 385.449 60.452C383.081 58.1755 380.37 56.7016 377.357 56.2147C373.554 55.6094 369.698 56.6621 366.053 59.0176C364.632 57.6622 362.829 56.7674 360.552 56.399C347.906 54.3856 334.852 70.374 331.405 92.1129C327.957 113.839 335.405 133.091 348.051 135.091C349.709 135.354 351.223 135.288 352.604 134.933C355.539 139.183 359.276 141.947 363.632 142.644C366.434 143.092 369.277 142.631 372.027 141.42C374.988 146.789 378.962 150.263 383.699 151.013C388.805 151.829 394.029 149.368 398.78 144.526C400.846 146.184 403.135 147.263 405.649 147.658C409.557 148.276 413.518 147.158 417.242 144.657C418.676 146.158 420.492 147.158 422.782 147.513C435.428 149.526 448.482 133.538 451.93 111.799C455.377 90.0996 447.916 70.8477 435.27 68.8344Z" fill="#070E14"/>
<path d="M393.488 58.6986C393.567 58.5933 393.396 58.8302 393.554 58.6722C393.659 58.567 393.844 58.3169 394.067 57.9485C394.515 57.2116 395.107 55.9351 395.41 54.1718C395.489 53.7376 395.541 53.2638 395.594 52.7638C395.62 52.5137 395.62 52.2637 395.633 52.0006C395.646 51.6716 395.646 51.3426 395.66 51.0004C395.686 49.395 395.844 47.6843 396.173 45.9737C396.489 44.2498 396.989 42.4733 397.739 40.7231C398.489 38.973 399.476 37.236 400.884 35.67C402.265 34.1304 404.134 32.775 406.292 32.1697C408.424 31.5381 410.674 31.7354 412.385 32.3408C414.49 33.0645 415.885 34.2752 416.964 35.6569C418.017 37.0386 418.635 38.565 418.859 40.0389C419.096 41.5127 418.938 42.9207 418.491 44.0656C418.056 45.2236 417.385 46.0658 416.754 46.6316C416.135 47.2106 415.569 47.5133 415.188 47.7238C414.806 47.9081 414.596 48.0002 414.596 48.0002L413.688 46.2763C413.688 46.2763 413.832 46.171 414.096 45.9868C414.332 45.7763 414.701 45.4868 415.03 45.0262C415.359 44.5788 415.661 43.9866 415.78 43.2629C415.898 42.5391 415.833 41.6969 415.504 40.8416C415.188 39.9862 414.609 39.1177 413.846 38.4466C413.464 38.1045 413.03 37.8281 412.569 37.6044C412.345 37.4992 412.109 37.407 411.872 37.3412C411.622 37.2623 411.385 37.2228 411.24 37.2097C408.898 36.8938 407.319 37.8676 406.134 39.802C404.976 41.7496 404.476 44.4209 404.476 46.8948C404.463 48.1449 404.581 49.3556 404.766 50.4872L404.845 51.0004L404.858 51.0662C404.858 51.0399 404.871 51.1584 404.858 51.0268V51.0662L404.871 51.2242L404.897 51.5268C404.937 51.9348 404.989 52.3295 405.003 52.7243C405.042 53.5138 405.055 54.2902 405.029 55.0403C404.937 58.0538 404.226 60.6198 403.489 62.3963C403.121 63.2911 402.752 63.9886 402.45 64.5018C402.187 64.9623 401.765 65.515 401.844 65.4097L393.488 58.6986Z" fill="#070E14"/>
<path d="M388.772 84.1691C376.837 81.4978 368.046 77.5764 358.309 70.0625C358.309 70.0625 367.112 101.552 388.772 84.1691Z" fill="#FA4A00"/>
<path d="M399.918 85.935C412.09 87.093 421.657 86.0929 433.25 81.9609C433.25 81.9609 415.117 109.187 399.918 85.935Z" fill="#FA4A00"/>
<path d="M396.56 109.174L392.547 96.3828L384.77 107.292L396.56 109.174Z" fill="#FA4A00"/>
<path d="M422.943 111.143C419.338 116.46 415.838 121.631 412.442 126.658C411.021 125.908 409.574 125.052 408.113 124.066C406.152 126.21 404.218 128.276 402.336 130.264C401.178 129.013 400.007 127.671 398.823 126.237C396.678 128.092 394.599 129.842 392.559 131.461C391.006 129.763 389.44 127.908 387.848 125.908C385.716 127.316 383.65 128.592 381.65 129.724C380.229 127.54 378.781 125.237 377.334 122.815C375.755 123.816 374.228 124.723 372.741 125.553C371.57 123.079 370.373 120.513 369.175 117.868C367.478 118.354 365.833 118.723 364.254 118.986C362.582 113.157 360.859 107.156 359.082 100.984C360.924 104.879 362.78 108.617 364.635 112.17C366.267 111.906 367.951 111.538 369.701 111.051C370.938 113.709 372.175 116.275 373.386 118.749C374.912 117.92 376.478 117.012 378.097 116.025C379.597 118.46 381.097 120.763 382.571 122.947C384.624 121.815 386.743 120.552 388.94 119.157C390.585 121.157 392.204 123.026 393.809 124.723C395.888 123.105 398.02 121.368 400.218 119.526C401.455 120.973 402.665 122.315 403.85 123.579C405.771 121.605 407.745 119.539 409.745 117.394C411.258 118.394 412.745 119.262 414.206 120.026C417.061 117.249 419.983 114.275 422.943 111.143Z" fill="#FA4A00"/>
<path d="M217.332 56.3955C215.542 56.7113 214.029 57.2903 212.739 58.093C208.594 55.0401 204.146 53.6452 199.817 54.4084C196.474 55.0006 193.527 56.8034 191.04 59.5537C186.987 56.4218 182.723 54.9874 178.578 55.7243C174.077 56.5139 170.314 59.7511 167.498 64.7252C164.524 63.3435 161.471 62.8303 158.457 63.3567C154.654 64.0278 151.365 66.278 148.68 69.6994C146.891 68.8835 144.89 68.6203 142.627 69.0282C130.021 71.2521 122.888 90.6224 126.704 112.282C130.521 133.956 143.838 149.72 156.457 147.496C158.115 147.207 159.523 146.641 160.708 145.865C164.866 148.917 169.301 150.326 173.643 149.562C176.446 149.075 178.973 147.707 181.183 145.667C185.723 149.773 190.618 151.773 195.356 150.931C200.448 150.036 204.594 145.996 207.502 139.89C209.989 140.785 212.515 141.061 215.016 140.614C218.911 139.93 222.279 137.574 225.003 133.995C226.846 134.942 228.898 135.298 231.175 134.89C243.781 132.666 250.914 113.296 247.098 91.6225C243.255 69.9362 229.938 54.1716 217.332 56.3955Z" fill="#070E14"/>
<path d="M174.525 60.4154C174.565 60.2838 174.486 60.5733 174.578 60.3628C174.644 60.2312 174.736 59.9285 174.828 59.5074C175.012 58.6652 175.157 57.2572 174.868 55.4939C174.802 55.0465 174.696 54.5859 174.578 54.099C174.525 53.8621 174.433 53.6121 174.367 53.3621C174.262 53.0463 174.17 52.7305 174.065 52.4015C173.565 50.875 173.157 49.2038 172.907 47.48C172.644 45.7429 172.538 43.9007 172.67 42.0057C172.802 40.1108 173.183 38.137 173.999 36.2157C174.802 34.3076 176.131 32.4259 177.973 31.1494C179.776 29.8598 181.987 29.3203 183.789 29.3203C186.013 29.3203 187.724 30.0046 189.198 30.9652C190.645 31.9258 191.724 33.1759 192.422 34.4787C193.132 35.7946 193.435 37.1895 193.382 38.4133C193.343 39.6503 192.988 40.6635 192.58 41.4004C192.185 42.1505 191.751 42.6242 191.461 42.94C191.159 43.2427 190.987 43.4006 190.987 43.4006L189.566 42.0584C189.566 42.0584 189.658 41.9136 189.856 41.6505C190.014 41.3741 190.264 40.9793 190.422 40.4398C190.593 39.9134 190.672 39.2555 190.553 38.5317C190.435 37.8211 190.093 37.0316 189.514 36.3341C188.935 35.6236 188.106 34.9919 187.158 34.6103C186.684 34.4129 186.184 34.2813 185.684 34.2287C185.434 34.2024 185.184 34.1892 184.934 34.2024C184.671 34.2155 184.434 34.255 184.289 34.2813C181.973 34.7551 180.802 36.1894 180.315 38.387C179.855 40.5977 180.25 43.2953 181.065 45.6245C181.473 46.8088 181.96 47.9142 182.5 48.9275L182.737 49.388L182.763 49.4407C182.75 49.4144 182.802 49.5328 182.75 49.4012L182.763 49.4407L182.829 49.5854L182.96 49.8618C183.131 50.2302 183.303 50.5987 183.447 50.9671C183.75 51.704 184.013 52.4278 184.224 53.1515C185.118 56.0334 185.29 58.6916 185.158 60.6128C185.105 61.5734 184.987 62.363 184.855 62.942C184.763 63.4683 184.539 64.1263 184.579 63.9947L174.525 60.4154Z" fill="#070E14"/>
<path d="M178.351 86.0332C166.205 87.4018 156.612 86.5596 144.953 82.625C144.953 82.6118 163.547 109.522 178.351 86.0332Z" fill="#FA4A00"/>
<path d="M189.469 84.073C201.351 81.2043 210.076 77.1381 219.682 69.4531C219.682 69.4531 211.418 101.088 189.469 84.073Z" fill="#FA4A00"/>
<path d="M193.87 107.129L185.908 96.3516L182.105 109.195L193.87 107.129Z" fill="#FA4A00"/>
<path d="M219.464 100.414C217.779 106.612 216.161 112.652 214.595 118.495C213.003 118.258 211.358 117.916 209.66 117.455C208.502 120.113 207.357 122.706 206.226 125.206C204.726 124.403 203.186 123.508 201.594 122.548C200.172 124.995 198.778 127.325 197.383 129.535C195.356 128.43 193.277 127.193 191.119 125.824C189.566 127.851 188.027 129.72 186.5 131.457C184.447 129.864 182.329 128.154 180.157 126.338C178.986 127.798 177.841 129.154 176.71 130.417C174.788 128.456 172.828 126.417 170.828 124.311C169.38 125.324 167.946 126.206 166.538 126.969C163.064 122.008 159.471 116.889 155.773 111.639C158.787 114.718 161.761 117.639 164.669 120.403C166.13 119.626 167.604 118.732 169.091 117.705C171.13 119.811 173.13 121.837 175.091 123.785C176.262 122.508 177.46 121.14 178.657 119.679C180.868 121.482 183.039 123.179 185.145 124.772C186.724 123.035 188.316 121.153 189.921 119.113C192.132 120.469 194.277 121.706 196.343 122.798C197.777 120.587 199.238 118.258 200.699 115.797C202.331 116.758 203.923 117.639 205.462 118.442C206.634 115.942 207.818 113.35 209.015 110.678C210.766 111.139 212.463 111.468 214.095 111.705C215.884 108.112 217.674 104.335 219.464 100.414Z" fill="#FA4A00"/>
</svg>
