<svg width="253" height="152" viewBox="0 0 253 152" fill="none" xmlns="http://www.w3.org/2000/svg">
<path d="M217.527 31.4122C213.645 32.1886 211.118 34.3072 209.289 37.7023C204.354 35.6363 199.907 34.8862 196.038 35.6363C192.169 36.4127 189.195 38.6103 186.721 42.1369C182.444 39.9394 178.418 39.1103 174.549 39.8604C170.68 40.6368 167.272 42.9265 164.14 46.5847C160.508 44.2556 156.929 43.3476 153.047 44.0977C149.178 44.8609 145.336 47.2427 141.559 51.0325C138.572 48.5849 135.427 47.5717 131.545 48.3349C120.228 50.2561 108.332 70.7186 112.977 96.6027C118.491 122.329 137.256 136.751 148.467 134.225C152.349 133.448 154.876 131.33 156.705 127.935C161.64 130.001 166.087 130.751 169.956 130.001C173.825 129.224 176.799 127.027 179.273 123.5C183.55 125.698 187.576 126.527 191.445 125.777C195.314 125.013 198.722 122.71 201.854 119.052C205.486 121.381 209.065 122.289 212.947 121.539C216.816 120.776 220.659 118.394 224.435 114.604C227.422 117.052 230.567 118.065 234.449 117.302C245.766 115.381 255.938 95.2605 251.28 69.3764C245.766 43.6502 228.725 28.8857 217.527 31.4122Z" fill="#070E14"/>
<path d="M163.247 49.8864C160.26 46.5834 169.076 43.6226 167.747 32.2794C166.918 25.134 163.971 4.90837 175.709 0L178.09 2.89501C178.09 2.89501 170.603 5.01365 172.985 19.0676C177.169 43.7542 189.157 38.359 190.644 43.899C192.092 49.3074 166.234 53.1893 163.247 49.8864Z" fill="#070E14"/>
<path d="M160.911 56.5234L147.41 78.7624L168.899 71.1301L160.911 56.5234Z" fill="#FA4A00"/>
<path d="M191.706 50.4609L212.642 65.9229L189.863 67.002L191.706 50.4609Z" fill="#FA4A00"/>
<path d="M190.231 87.1722L180.546 75L176.203 89.9356L190.231 87.1722Z" fill="#FA4A00"/>
<path d="M208.058 93.3786L206.518 100.103L205.176 94.7604C202.781 95.8262 199.833 96.9448 196.254 98.037L194.78 104.603L193.319 98.8792C191.003 99.4976 188.477 100.103 185.7 100.642C182.845 101.208 180.226 101.629 177.818 101.932L178.634 107.775L174.791 102.274C171.028 102.643 167.883 102.722 165.277 102.656L166.054 108.064L162.132 102.485C157.592 102.103 155.5 101.274 155.5 101.274C158.027 105.156 162.948 109.525 169.949 111.828L170.844 106.064L172.488 112.552C175.923 113.367 179.805 113.696 184.095 113.262L186.542 104.261L191.846 111.709C195.912 110.459 199.373 108.63 202.241 106.498L201.32 100.063L204.202 104.932C210.005 99.9056 213.019 93.7866 213.703 89.8125C213.69 89.8257 212.005 91.3521 208.058 93.3786Z" fill="#FA4A00"/>
<path d="M105.27 68.8344C103.48 68.5449 101.862 68.5975 100.388 68.9396C97.4667 64.7024 93.7163 61.9258 89.3738 61.2415C86.0314 60.7152 82.6494 61.4521 79.3991 63.2417C76.5962 58.965 73.017 56.2147 68.8587 55.5568C64.3451 54.8462 59.7394 56.6753 55.4495 60.452C53.0808 58.1755 50.37 56.7016 47.3566 56.2147C43.5536 55.6094 39.698 56.6621 36.0529 59.0176C34.6317 57.6622 32.8289 56.7674 30.5523 56.399C17.9064 54.3856 4.8525 70.374 1.4048 92.1129C-2.0429 113.839 5.40517 133.091 18.0511 135.091C19.7092 135.354 21.2225 135.288 22.6042 134.933C25.5387 139.183 29.2759 141.947 33.6316 142.644C36.4345 143.092 39.2768 142.631 42.0271 141.42C44.9879 146.789 48.962 150.263 53.6993 151.013C58.805 151.829 64.0293 149.368 68.7797 144.526C70.8457 146.184 73.1354 147.263 75.6488 147.658C79.5571 148.276 83.518 147.158 87.242 144.657C88.6763 146.158 90.4923 147.158 92.782 147.513C105.428 149.526 118.482 133.538 121.93 111.799C125.377 90.0996 117.916 70.8477 105.27 68.8344Z" fill="#070E14"/>
<path d="M63.4883 58.6986C63.5673 58.5933 63.3962 58.8302 63.5541 58.6722C63.6594 58.567 63.8436 58.3169 64.0673 57.9485C64.5147 57.2116 65.1069 55.9351 65.4096 54.1718C65.4885 53.7376 65.5411 53.2638 65.5938 52.7638C65.6201 52.5137 65.6201 52.2637 65.6333 52.0006C65.6464 51.6716 65.6464 51.3426 65.6596 51.0004C65.6859 49.395 65.8438 47.6843 66.1728 45.9737C66.4886 44.2498 66.9887 42.4733 67.7387 40.7231C68.4888 38.973 69.4758 37.236 70.8838 35.67C72.2655 34.1304 74.1341 32.775 76.2922 32.1697C78.424 31.5381 80.6742 31.7354 82.3849 32.3408C84.4903 33.0645 85.8852 34.2752 86.9642 35.6569C88.017 37.0386 88.6355 38.565 88.8592 40.0389C89.096 41.5127 88.9381 42.9207 88.4907 44.0656C88.0565 45.2236 87.3854 46.0658 86.7537 46.6316C86.1352 47.2106 85.5694 47.5133 85.1878 47.7238C84.8062 47.9081 84.5956 48.0002 84.5956 48.0002L83.6876 46.2763C83.6876 46.2763 83.8324 46.171 84.0956 45.9868C84.3324 45.7763 84.7009 45.4868 85.0299 45.0262C85.3589 44.5788 85.6615 43.9866 85.7799 43.2629C85.8984 42.5391 85.8326 41.6969 85.5036 40.8416C85.1878 39.9862 84.6088 39.1177 83.8455 38.4466C83.4639 38.1045 83.0297 37.8281 82.5691 37.6044C82.3454 37.4992 82.1085 37.407 81.8716 37.3412C81.6216 37.2623 81.3848 37.2228 81.24 37.2097C78.8977 36.8938 77.3186 37.8676 76.1343 39.802C74.9763 41.7496 74.4762 44.4209 74.4762 46.8948C74.4631 48.1449 74.5815 49.3556 74.7657 50.4872L74.8447 51.0004L74.8578 51.0662C74.8578 51.0399 74.871 51.1584 74.8578 51.0268V51.0662L74.871 51.2242L74.8973 51.5268C74.9368 51.9348 74.9894 52.3295 75.0026 52.7243C75.042 53.5138 75.0552 54.2902 75.0289 55.0403C74.9368 58.0538 74.2262 60.6198 73.4893 62.3963C73.1208 63.2911 72.7523 63.9886 72.4497 64.5018C72.1865 64.9623 71.7654 65.515 71.8444 65.4097L63.4883 58.6986Z" fill="#070E14"/>
<path d="M58.772 84.1691C46.8367 81.4978 38.0464 77.5764 28.3086 70.0625C28.3086 70.0625 37.1121 101.552 58.772 84.1691Z" fill="#FA4A00"/>
<path d="M69.918 85.935C82.0902 87.093 91.6569 86.0929 103.25 81.9609C103.25 81.9609 85.1168 109.187 69.918 85.935Z" fill="#FA4A00"/>
<path d="M66.5601 109.174L62.5466 96.3828L54.7695 107.292L66.5601 109.174Z" fill="#FA4A00"/>
<path d="M92.9434 111.143C89.3378 116.46 85.8375 121.631 82.4424 126.658C81.0213 125.908 79.5737 125.052 78.1131 124.066C76.1524 126.21 74.2179 128.276 72.3362 130.264C71.1782 129.013 70.007 127.671 68.8227 126.237C66.6778 128.092 64.5986 129.842 62.5589 131.461C61.0062 129.763 59.4402 127.908 57.848 125.908C55.7162 127.316 53.6502 128.592 51.65 129.724C50.2288 127.54 48.7813 125.237 47.3338 122.815C45.7547 123.816 44.2282 124.723 42.7412 125.553C41.5701 123.079 40.3726 120.513 39.1751 117.868C37.4776 118.354 35.8327 118.723 34.2536 118.986C32.5824 113.157 30.8585 107.156 29.082 100.984C30.9243 104.879 32.7798 108.617 34.6352 112.17C36.2669 111.906 37.9513 111.538 39.7015 111.051C40.9384 113.709 42.1754 116.275 43.386 118.749C44.9125 117.92 46.4785 117.012 48.097 116.025C49.5972 118.46 51.0973 120.763 52.5711 122.947C54.624 121.815 56.7426 120.552 58.9402 119.157C60.5851 121.157 62.2037 123.026 63.8091 124.723C65.8882 123.105 68.02 121.368 70.2176 119.526C71.4545 120.973 72.6652 122.315 73.8495 123.579C75.7708 121.605 77.7446 119.539 79.7448 117.394C81.2581 118.394 82.7451 119.262 84.2058 120.026C87.0613 117.249 89.9826 114.275 92.9434 111.143Z" fill="#FA4A00"/>
</svg>
