<svg width="65" height="23" viewBox="0 0 65 23" fill="none" xmlns="http://www.w3.org/2000/svg">
<g clip-path="url(#clip0_1_19882)">
<path d="M0.03125 20.9228L0.691863 20.859C0.735182 21.0826 0.810989 21.2423 0.940946 21.3488C1.06007 21.4552 1.23335 21.4978 1.43911 21.4978C1.65571 21.4978 1.82898 21.4552 1.93728 21.3594C2.04558 21.2636 2.11055 21.1571 2.11055 21.04C2.11055 20.9654 2.0889 20.8909 2.03475 20.8377C1.99143 20.7844 1.90479 20.7312 1.78566 20.6886C1.70986 20.6566 1.52575 20.6141 1.23335 20.5395C0.865138 20.4543 0.605225 20.3372 0.464438 20.2094C0.258674 20.0284 0.150377 19.8048 0.150377 19.5386C0.150377 19.3682 0.204525 19.2085 0.301993 19.0594C0.39946 18.9104 0.540247 18.8039 0.724352 18.7187C0.908457 18.6442 1.12505 18.6016 1.38496 18.6016C1.80732 18.6016 2.13221 18.6974 2.34881 18.8784C2.5654 19.0594 2.6737 19.3043 2.68453 19.6131L2.00226 19.6344C1.96977 19.4641 1.90479 19.3363 1.81815 19.2617C1.72068 19.1872 1.5799 19.1446 1.38496 19.1446C1.19003 19.1446 1.02758 19.1872 0.919287 19.2617C0.843479 19.315 0.81099 19.3789 0.81099 19.4641C0.81099 19.5386 0.843479 19.6131 0.908457 19.6664C0.995095 19.7409 1.20086 19.8154 1.53658 19.89C1.8723 19.9645 2.11055 20.0497 2.273 20.1349C2.43545 20.2201 2.55457 20.3266 2.65204 20.4756C2.73868 20.6247 2.782 20.7951 2.782 21.008C2.782 21.1997 2.72785 21.3807 2.61955 21.5511C2.51125 21.7215 2.35964 21.8386 2.1647 21.9238C1.96977 22.0089 1.72069 22.0409 1.42828 22.0409C0.995094 22.0409 0.670203 21.9451 0.442779 21.7427C0.215355 21.583 0.0745688 21.2955 0.03125 20.9228Z" fill="#00489A"/>
<path d="M3.50781 18.6797H4.15759V19.2653H3.50781V18.6797ZM3.50781 19.5954H4.15759V22.0125H3.50781V19.5954Z" fill="#00489A"/>
<path d="M7.20162 22.0122H6.55184V20.7771C6.55184 20.5109 6.54101 20.3512 6.50852 20.266C6.47603 20.1914 6.43271 20.1275 6.37857 20.0849C6.31359 20.0424 6.23778 20.0211 6.15114 20.0211C6.04284 20.0211 5.93455 20.053 5.84791 20.1169C5.76127 20.1808 5.69629 20.2553 5.6638 20.3618C5.63131 20.4576 5.62049 20.6493 5.62049 20.9155V22.0122H4.9707V19.5951H5.57717V19.9465C5.79376 19.6697 6.0645 19.5312 6.3894 19.5312C6.53018 19.5312 6.66014 19.5525 6.77926 19.6058C6.89839 19.659 6.98503 19.7229 7.05001 19.7975C7.11499 19.872 7.1583 19.9678 7.17996 20.0637C7.20162 20.1595 7.21245 20.3086 7.21245 20.4896V22.0122" fill="#00489A"/>
<path d="M7.9382 22.1691L8.67462 22.2437C8.68545 22.3395 8.71794 22.3928 8.76126 22.4353C8.82623 22.4886 8.9237 22.5099 9.05366 22.5099C9.22693 22.5099 9.35689 22.4886 9.4327 22.4353C9.48685 22.4034 9.53016 22.3502 9.56265 22.2756C9.58431 22.2224 9.59514 22.1266 9.59514 21.9775V21.6261C9.40021 21.8816 9.16196 22.0094 8.85872 22.0094C8.523 22.0094 8.26309 21.871 8.07899 21.5941C7.92737 21.3812 7.85156 21.1043 7.85156 20.7849C7.85156 20.3803 7.94903 20.0715 8.14396 19.8585C8.3389 19.6455 8.58798 19.5391 8.88038 19.5391C9.18361 19.5391 9.4327 19.6668 9.62763 19.933V19.603H10.2341V21.7752C10.2341 22.0627 10.2124 22.2756 10.1583 22.414C10.115 22.5525 10.0392 22.6696 9.95252 22.7441C9.86589 22.8187 9.74676 22.8826 9.60597 22.9358C9.46519 22.9784 9.28108 22.9997 9.05366 22.9997C8.6313 22.9997 8.3389 22.9252 8.16562 22.7867C7.99235 22.6483 7.90571 22.4673 7.90571 22.2437C7.9382 22.2224 7.9382 22.2011 7.9382 22.1691ZM8.523 20.7529C8.523 21.0085 8.57715 21.2002 8.67462 21.3173C8.77209 21.4344 8.90204 21.4983 9.04283 21.4983C9.19444 21.4983 9.33523 21.4344 9.44353 21.3173C9.55182 21.2002 9.60597 21.0191 9.60597 20.7742C9.60597 20.5187 9.55182 20.3377 9.45436 20.2205C9.35689 20.1034 9.2161 20.0395 9.06449 20.0395C8.91287 20.0395 8.78292 20.0928 8.68545 20.2205C8.57715 20.327 8.523 20.508 8.523 20.7529Z" fill="#00489A"/>
<path d="M11.6849 18.6797H11.0352V22.0125H11.6849V18.6797Z" fill="#00489A"/>
<path d="M13.9272 21.2562L14.577 21.3627C14.4903 21.597 14.3604 21.7673 14.1763 21.8951C13.9922 22.0229 13.7756 22.0761 13.5048 22.0761C13.0716 22.0761 12.7576 21.9377 12.5518 21.6609C12.3894 21.4373 12.3027 21.1604 12.3027 20.8197C12.3027 20.415 12.411 20.1062 12.6276 19.872C12.8442 19.6484 13.115 19.5312 13.4399 19.5312C13.8081 19.5312 14.1005 19.6484 14.3062 19.8826C14.5228 20.1275 14.6203 20.4896 14.6095 20.9794H12.9742C12.9742 21.171 13.0283 21.3201 13.1366 21.4266C13.2341 21.5331 13.364 21.5863 13.5157 21.5863C13.624 21.5863 13.6998 21.565 13.7756 21.5011C13.8406 21.4585 13.8947 21.3734 13.9272 21.2562ZM13.9597 20.6067C13.9597 20.415 13.9055 20.2766 13.8081 20.1808C13.7106 20.0849 13.6023 20.0317 13.4723 20.0317C13.3316 20.0317 13.2124 20.0849 13.115 20.1808C13.0175 20.2873 12.9742 20.4257 12.9742 20.6067H13.9597Z" fill="#00489A"/>
<path d="M16.7422 22.0125V18.6797H19.2547V19.244H17.4353V19.9788H19.1247V20.5431H17.4353V21.4588H19.3197V22.0125H16.7422Z" fill="#00489A"/>
<path d="M21.6587 22.008V21.646C21.5721 21.7738 21.453 21.8803 21.3013 21.9548C21.1497 22.0293 20.9981 22.0719 20.8357 22.0719C20.6732 22.0719 20.5216 22.04 20.3916 21.9654C20.2617 21.8909 20.1642 21.7951 20.1101 21.6673C20.0559 21.5395 20.0234 21.3585 20.0234 21.1349V19.6016H20.6732V20.709C20.6732 21.0497 20.684 21.252 20.7057 21.3372C20.7274 21.4117 20.7707 21.4756 20.8357 21.5182C20.9006 21.5608 20.9764 21.5821 21.0739 21.5821C21.1822 21.5821 21.2797 21.5502 21.3771 21.4969C21.4638 21.433 21.5288 21.3585 21.5613 21.2733C21.5937 21.1881 21.6046 20.9645 21.6046 20.6238V19.6016H22.2544V22.008H21.6587Z" fill="#00489A"/>
<path d="M23.6967 22.0094H23.0469V19.5923H23.6533V19.933C23.7616 19.7733 23.8483 19.6668 23.9349 19.6136C24.0216 19.5604 24.1082 19.5391 24.2165 19.5391C24.3681 19.5391 24.5089 19.5817 24.6497 19.6562L24.4547 20.2099C24.3464 20.1354 24.2381 20.1034 24.1515 20.1034C24.0649 20.1034 23.9782 20.1247 23.9241 20.1779C23.8591 20.2312 23.805 20.3164 23.7725 20.4441C23.74 20.5719 23.7183 20.8488 23.7183 21.2534V22.0094" fill="#00489A"/>
<path d="M24.8984 20.7742C24.8984 20.5613 24.9526 20.359 25.0609 20.1567C25.1692 19.9543 25.3208 19.8053 25.5157 19.6988C25.7107 19.5923 25.9273 19.5391 26.1655 19.5391C26.5337 19.5391 26.8478 19.6562 27.0752 19.8905C27.3135 20.1354 27.4326 20.4335 27.4326 20.7955C27.4326 21.1682 27.3135 21.4664 27.0752 21.7113C26.837 21.9562 26.5337 22.0733 26.1655 22.0733C25.9381 22.0733 25.7215 22.0201 25.5157 21.9242C25.31 21.8284 25.1584 21.6793 25.0501 21.4877C24.9526 21.2853 24.8984 21.0511 24.8984 20.7742ZM25.5699 20.8062C25.5699 21.0511 25.624 21.2321 25.7432 21.3599C25.8623 21.4877 26.0031 21.5516 26.1763 21.5516C26.3496 21.5516 26.4904 21.4877 26.5987 21.3599C26.7178 21.2321 26.772 21.0511 26.772 20.8062C26.772 20.5719 26.7178 20.3909 26.5987 20.2631C26.4796 20.1354 26.3388 20.0715 26.1763 20.0715C26.0031 20.0715 25.8623 20.1354 25.7432 20.2631C25.624 20.3803 25.5699 20.5613 25.5699 20.8062Z" fill="#00489A"/>
<path d="M29.5664 22.0125V18.6797H30.6602C31.0826 18.6797 31.3425 18.701 31.4724 18.7329C31.6674 18.7862 31.8298 18.8926 31.9598 19.063C32.0897 19.2334 32.1547 19.4463 32.1547 19.7125C32.1547 19.9149 32.1222 20.0852 32.0464 20.2343C31.9706 20.3727 31.8731 20.4792 31.7648 20.5644C31.6457 20.6389 31.5266 20.6922 31.4075 20.7241C31.245 20.7561 31.0068 20.7774 30.6927 20.7774H30.2487V22.0125H29.5664ZM30.2487 19.244V20.1917H30.6277C30.8985 20.1917 31.0717 20.1704 31.1692 20.1385C31.2558 20.0959 31.3316 20.0426 31.3858 19.9681C31.4399 19.8936 31.4616 19.8084 31.4616 19.7125C31.4616 19.5848 31.4291 19.4889 31.3533 19.4144C31.2775 19.3399 31.1909 19.2866 31.0826 19.2653C30.9959 19.244 30.8335 19.244 30.5844 19.244H30.2487Z" fill="#00489A"/>
<path d="M33.3334 20.3299L32.7486 20.2234C32.8136 19.9891 32.9327 19.8187 33.0843 19.7016C33.2467 19.5845 33.485 19.5312 33.8099 19.5312C34.1023 19.5312 34.3189 19.5632 34.4597 19.6271C34.6005 19.691 34.6979 19.7762 34.7629 19.8826C34.817 19.9891 34.8495 20.1808 34.8495 20.4576L34.8387 21.203C34.8387 21.416 34.8495 21.5757 34.8712 21.6715C34.8929 21.7673 34.9253 21.8845 34.9903 21.991H34.3405C34.3189 21.9484 34.308 21.8845 34.2756 21.8099C34.2647 21.7673 34.2539 21.746 34.2539 21.7354C34.1456 21.8419 34.0265 21.9271 33.8965 21.9803C33.7666 22.0335 33.6366 22.0655 33.4958 22.0655C33.2467 22.0655 33.041 22.0016 32.9002 21.8632C32.7594 21.7248 32.6836 21.5544 32.6836 21.3521C32.6836 21.2136 32.7161 21.0965 32.7811 20.99C32.846 20.8836 32.9435 20.7984 33.0626 20.7451C33.1818 20.6919 33.355 20.6386 33.5825 20.5961C33.8857 20.5428 34.0915 20.4896 34.2106 20.4363V20.3724C34.2106 20.2447 34.1781 20.1595 34.1131 20.1062C34.0481 20.053 33.929 20.0317 33.7557 20.0317C33.6366 20.0317 33.55 20.053 33.485 20.0956C33.4308 20.1382 33.3767 20.2234 33.3334 20.3299ZM34.2106 20.8516C34.1239 20.8836 33.994 20.9155 33.8099 20.9474C33.6258 20.9794 33.5175 21.022 33.4525 21.0646C33.3659 21.1285 33.3225 21.203 33.3225 21.2882C33.3225 21.3734 33.355 21.4585 33.42 21.5224C33.485 21.5863 33.5716 21.6183 33.6799 21.6183C33.7991 21.6183 33.9074 21.5757 34.0156 21.5011C34.0915 21.4479 34.1456 21.3734 34.1673 21.2882C34.1889 21.2349 34.1889 21.1285 34.1889 20.9794V20.8516H34.2106Z" fill="#00489A"/>
<path d="M35.3164 19.5938H36.0095L36.5943 21.3081L37.1683 19.5938H37.8397L36.9733 21.915L36.8109 22.341C36.7568 22.4794 36.7026 22.5859 36.6485 22.6604C36.5943 22.7349 36.5402 22.7988 36.4752 22.8414C36.4102 22.884 36.3236 22.9266 36.2261 22.9479C36.1286 22.9692 36.0203 22.9905 35.8904 22.9905C35.7604 22.9905 35.6413 22.9798 35.5222 22.9479L35.4572 22.4474C35.5547 22.4687 35.6521 22.4794 35.7388 22.4794C35.8904 22.4794 35.9987 22.4368 36.0745 22.3516C36.1503 22.2664 36.2044 22.1493 36.2369 22.0109L35.3164 19.5938Z" fill="#00489A"/>
<path d="M38.3585 19.5951H38.9541V19.9252C39.1707 19.6697 39.4306 19.5312 39.723 19.5312C39.8855 19.5312 40.0154 19.5632 40.1346 19.6271C40.2537 19.691 40.3403 19.7868 40.4161 19.9146C40.5244 19.7868 40.6436 19.691 40.7627 19.6271C40.8926 19.5632 41.0226 19.5312 41.1634 19.5312C41.3475 19.5312 41.4991 19.5632 41.6182 19.6377C41.7374 19.7123 41.8348 19.8187 41.8998 19.9572C41.9431 20.0637 41.9648 20.2234 41.9648 20.4576V22.0122H41.315V20.628C41.315 20.3831 41.2933 20.234 41.25 20.1595C41.185 20.0637 41.0984 20.0211 40.9684 20.0211C40.8818 20.0211 40.7952 20.0424 40.7085 20.1062C40.6327 20.1595 40.5677 20.2447 40.5353 20.3511C40.5028 20.4576 40.4811 20.628 40.4811 20.8516V22.0122H39.8313V20.6919C39.8313 20.4576 39.8205 20.2979 39.7988 20.234C39.7772 20.1595 39.7447 20.1169 39.6905 20.0849C39.6364 20.053 39.5714 20.0317 39.4956 20.0317C39.3981 20.0317 39.3115 20.053 39.2249 20.1062C39.1491 20.1595 39.0841 20.234 39.0516 20.3405C39.0191 20.4363 38.9974 20.6067 38.9974 20.841V22.0122H38.3477V19.5951" fill="#00489A"/>
<path d="M44.1948 21.2562L44.8446 21.3627C44.7579 21.597 44.628 21.7673 44.4439 21.8951C44.2598 22.0229 44.0432 22.0761 43.7724 22.0761C43.3392 22.0761 43.0252 21.9377 42.8194 21.6609C42.6569 21.4373 42.5703 21.1604 42.5703 20.8197C42.5703 20.415 42.6786 20.1062 42.8952 19.872C43.1118 19.6484 43.3825 19.5312 43.7074 19.5312C44.0756 19.5312 44.3681 19.6484 44.5738 19.8826C44.7904 20.1275 44.8879 20.4896 44.8771 20.9794H43.2418C43.2418 21.171 43.2959 21.3201 43.4042 21.4266C43.5017 21.5331 43.6316 21.5863 43.7832 21.5863C43.8915 21.5863 43.9782 21.565 44.0432 21.5011C44.1081 21.4585 44.1623 21.3734 44.1948 21.2562ZM44.2273 20.6067C44.2273 20.415 44.1731 20.2766 44.0756 20.1808C43.9782 20.0849 43.8699 20.0317 43.7399 20.0317C43.5991 20.0317 43.48 20.0849 43.3825 20.1808C43.2851 20.2873 43.2418 20.4257 43.2418 20.6067H44.2273Z" fill="#00489A"/>
<path d="M47.7817 22.0122H47.1319V20.7771C47.1319 20.5109 47.1211 20.3512 47.0886 20.266C47.0561 20.1914 47.0128 20.1275 46.9586 20.0849C46.9045 20.0424 46.8178 20.0211 46.7312 20.0211C46.6229 20.0211 46.5146 20.053 46.428 20.1169C46.3413 20.1808 46.2764 20.2553 46.2439 20.3618C46.2114 20.4576 46.2006 20.6493 46.2006 20.9155V22.0122H45.5508V19.5951H46.1572V19.9465C46.3738 19.6697 46.6446 19.5312 46.9695 19.5312C47.1103 19.5312 47.2402 19.5525 47.3593 19.6058C47.4785 19.659 47.5651 19.7229 47.6301 19.7975C47.6951 19.872 47.7384 19.9678 47.76 20.0637C47.7817 20.1595 47.7925 20.3086 47.7925 20.4896V22.0122" fill="#00489A"/>
<path d="M49.7095 19.5962V20.1073H49.2655V21.0869C49.2655 21.2892 49.2655 21.4064 49.2763 21.4383C49.2872 21.4702 49.298 21.4915 49.3305 21.5235C49.363 21.5448 49.3955 21.5554 49.4388 21.5554C49.4929 21.5554 49.5796 21.5341 49.6987 21.4915L49.7528 21.9814C49.6012 22.0452 49.428 22.0772 49.2439 22.0772C49.1247 22.0772 49.0164 22.0559 48.9298 22.0239C48.8323 21.9813 48.7673 21.9281 48.724 21.8749C48.6807 21.811 48.6482 21.7258 48.6374 21.63C48.6266 21.5554 48.6157 21.4064 48.6157 21.1827V20.1286H48.3125V19.6175H48.6049V19.1383L49.2547 18.7656V19.6281H49.7095" fill="#00489A"/>
<path d="M50.0762 21.3308L50.726 21.2349C50.7476 21.3627 50.8126 21.4585 50.8992 21.5118C50.9859 21.5757 51.105 21.6076 51.2566 21.6076C51.4299 21.6076 51.549 21.5757 51.6357 21.5118C51.6898 21.4692 51.7223 21.416 51.7223 21.3414C51.7223 21.2882 51.7115 21.2562 51.679 21.2243C51.6465 21.1923 51.5707 21.1711 51.4624 21.1391C50.9317 21.022 50.596 20.9155 50.4552 20.8197C50.2603 20.6919 50.1628 20.5109 50.1628 20.2766C50.1628 20.0637 50.2494 19.8933 50.4119 19.7442C50.5852 19.6058 50.8451 19.5312 51.2025 19.5312C51.5382 19.5312 51.7873 19.5845 51.9605 19.691C52.123 19.7975 52.2421 19.9572 52.3071 20.1701L51.6898 20.2873C51.6681 20.1914 51.614 20.1169 51.5382 20.0743C51.4624 20.0211 51.3541 19.9998 51.2241 19.9998C51.0508 19.9998 50.9317 20.0211 50.8559 20.0743C50.8018 20.1062 50.7801 20.1488 50.7801 20.2021C50.7801 20.2447 50.8018 20.2873 50.8451 20.3192C50.8992 20.3618 51.105 20.4257 51.4515 20.5002C51.7981 20.5748 52.0364 20.6706 52.1771 20.7877C52.3179 20.9049 52.3829 21.0646 52.3829 21.2669C52.3829 21.4905 52.2854 21.6822 52.1013 21.8419C51.9064 22.0016 51.6357 22.0868 51.2674 22.0868C50.9317 22.0868 50.6718 22.0229 50.4769 21.8845C50.2603 21.746 50.1303 21.565 50.0762 21.3308Z" fill="#00489A"/>
<path d="M57.6028 22.0125H56.8663L56.5739 21.2565H55.2094L54.917 22.0125H54.1914L55.5018 18.6797H56.2274L57.6028 22.0125ZM56.3357 20.7028L55.8592 19.4676L55.4043 20.7028H56.3357Z" fill="#00489A"/>
<path d="M58.7181 22.0094H58.0684V19.5923H58.6748V19.933C58.7831 19.7733 58.8697 19.6668 58.9564 19.6136C59.043 19.5604 59.1297 19.5391 59.238 19.5391C59.3896 19.5391 59.5304 19.5817 59.6711 19.6562L59.4762 20.2099C59.3679 20.1354 59.2596 20.1034 59.173 20.1034C59.0863 20.1034 58.9997 20.1247 58.9456 20.1779C58.8806 20.2312 58.8264 20.3164 58.7939 20.4442C58.7615 20.5719 58.7398 20.8488 58.7398 21.2534V22.0094" fill="#00489A"/>
<path d="M61.5131 21.2562L62.1629 21.3627C62.0763 21.597 61.9463 21.7673 61.7622 21.8951C61.5781 22.0229 61.3615 22.0761 61.0908 22.0761C60.6576 22.0761 60.3435 21.9377 60.1378 21.6609C59.9753 21.4373 59.8887 21.1604 59.8887 20.8197C59.8887 20.415 59.997 20.1062 60.2136 19.872C60.4302 19.6484 60.7009 19.5312 61.0258 19.5312C61.394 19.5312 61.6864 19.6484 61.8922 19.8826C62.1088 20.1275 62.2062 20.4896 62.1954 20.9794H60.5601C60.5601 21.171 60.6143 21.3201 60.7226 21.4266C60.82 21.5331 60.95 21.5863 61.1016 21.5863C61.2099 21.5863 61.2965 21.565 61.3615 21.5011C61.4265 21.4585 61.4806 21.3734 61.5131 21.2562ZM61.5456 20.6067C61.5456 20.415 61.4915 20.2766 61.394 20.1808C61.2965 20.0849 61.1882 20.0317 61.0583 20.0317C60.9175 20.0317 60.7984 20.0849 60.7009 20.1808C60.6034 20.2873 60.5601 20.4257 60.5601 20.6067H61.5456Z" fill="#00489A"/>
<path d="M63.3431 20.3299L62.7583 20.2234C62.8233 19.9891 62.9424 19.8187 63.0941 19.7016C63.2565 19.5845 63.4948 19.5312 63.8197 19.5312C64.1121 19.5312 64.3287 19.5632 64.4694 19.6271C64.6102 19.691 64.7077 19.7762 64.7727 19.8826C64.8268 19.9891 64.8593 20.1808 64.8593 20.4576L64.8485 21.203C64.8485 21.416 64.8593 21.5757 64.881 21.6715C64.9026 21.7673 64.9351 21.8845 65.0001 21.991H64.3503C64.3287 21.9484 64.3178 21.8845 64.2853 21.8099C64.2745 21.7673 64.2637 21.746 64.2637 21.7354C64.1554 21.8419 64.0362 21.9271 63.9063 21.9803C63.7763 22.0335 63.6464 22.0655 63.5056 22.0655C63.2565 22.0655 63.0507 22.0016 62.91 21.8632C62.7692 21.7248 62.6934 21.5544 62.6934 21.3521C62.6934 21.2136 62.7259 21.0965 62.7908 20.99C62.8558 20.8836 62.9533 20.7984 63.0724 20.7451C63.1915 20.6919 63.3648 20.6386 63.5922 20.5961C63.8955 20.5428 64.1012 20.4896 64.2204 20.4363V20.3724C64.2204 20.2447 64.1879 20.1595 64.1229 20.1062C64.0579 20.053 63.9388 20.0317 63.7655 20.0317C63.6464 20.0317 63.5597 20.053 63.4948 20.0956C63.4406 20.1382 63.3865 20.2234 63.3431 20.3299ZM64.2204 20.8516C64.1337 20.8836 64.0038 20.9155 63.8197 20.9474C63.6355 20.9794 63.5272 21.022 63.4623 21.0646C63.3756 21.1285 63.3323 21.203 63.3323 21.2882C63.3323 21.3734 63.3648 21.4585 63.4298 21.5224C63.4948 21.5863 63.5814 21.6183 63.6897 21.6183C63.8088 21.6183 63.9171 21.5757 64.0254 21.5011C64.1012 21.4479 64.1554 21.3734 64.177 21.2882C64.1987 21.2349 64.1987 21.1285 64.1987 20.9794V20.8516H64.2204Z" fill="#00489A"/>
<path d="M14.4468 5.56473H10.0067C10.0067 4.8513 9.92001 4.37214 9.74674 4.11659C9.48682 3.75455 8.7504 3.57353 7.55914 3.57353C6.40036 3.57353 5.63145 3.68001 5.25241 3.88233C4.87337 4.09529 4.68926 4.55316 4.68926 5.24528C4.68926 5.88417 4.85171 6.29944 5.18743 6.50176C5.42568 6.64018 5.73975 6.72537 6.12962 6.75731L7.02848 6.8212C8.94534 6.94898 10.1474 7.03416 10.6239 7.0874C12.1401 7.23647 13.2447 7.63046 13.927 8.27999C14.4685 8.78045 14.7826 9.44063 14.8908 10.2499C14.945 10.729 14.9775 11.2827 14.9775 11.8897C14.9775 13.2952 14.8367 14.3281 14.566 14.9776C14.0678 16.1702 12.9632 16.9262 11.2304 17.2457C10.5048 17.3735 9.40019 17.448 7.90569 17.448C5.41486 17.448 3.6821 17.2989 2.70743 17.0114C1.50533 16.6494 0.714761 15.9253 0.324891 14.8286C0.108297 14.2216 0 13.2101 0 11.7832H4.44018C4.44018 11.9429 4.44018 12.0601 4.44018 12.1452C4.44018 12.9013 4.6676 13.3911 5.10079 13.604C5.40403 13.7531 5.78306 13.8276 6.21625 13.8383H7.85154C8.68543 13.8383 9.21608 13.7957 9.44351 13.7105C9.85503 13.5508 10.1149 13.2952 10.2449 12.9438C10.3099 12.7309 10.3424 12.4434 10.3424 12.1027C10.3424 11.336 10.0608 10.8675 9.48682 10.6971C9.27023 10.6332 8.28473 10.5374 6.50866 10.4203C5.08996 10.3244 4.10446 10.2286 3.55214 10.1328C2.10096 9.86655 1.12629 9.31285 0.638954 8.4823C0.216595 7.76888 0 6.69342 0 5.25593C0 4.15918 0.119128 3.28603 0.346552 2.62585C0.573976 1.96567 0.953015 1.46521 1.46201 1.12447C2.20926 0.602716 3.17311 0.283274 4.33188 0.198089C5.30656 0.112905 6.3787 0.0703125 7.56997 0.0703125C9.43268 0.0703125 10.7647 0.176793 11.5553 0.389755C13.4938 0.900863 14.4577 2.32771 14.4577 4.68093C14.4901 4.8939 14.4793 5.1814 14.4468 5.56473Z" fill="#00489A"/>
<path d="M33.9941 17.46V0.0078125H40.9576H42.0514H42.8961C44.1199 0.0078125 45.0513 0.103646 45.6902 0.305959C47.1522 0.753179 48.1377 1.67956 48.6359 3.07446C48.8958 3.80918 49.0258 4.90593 49.0258 6.38602C49.0258 8.1536 48.885 9.43137 48.5926 10.2087C48.0186 11.742 46.849 12.6258 45.0729 12.8494C44.8672 12.8813 43.9791 12.9133 42.4088 12.9346L41.6182 12.9559H38.77V17.46H33.9941ZM38.77 8.89896H41.7482C42.6904 8.86702 43.2644 8.79248 43.4701 8.686C43.7517 8.53693 43.9466 8.22814 44.0333 7.77027C44.0874 7.46147 44.1199 7.01425 44.1199 6.40731C44.1199 5.6726 44.0658 5.1189 43.9358 4.76751C43.7625 4.26705 43.351 3.95825 42.7012 3.85177C42.5713 3.83048 42.268 3.83048 41.7699 3.83048H38.7484V8.89896H38.77Z" fill="#00489A"/>
<path d="M59.2274 14.4388H52.8379L51.9824 17.4522H47.0332L52.3722 0H59.574L64.978 17.4522H60.1371L59.2274 14.4388ZM58.2744 11.0421L56.0327 3.48192L53.8559 11.0421H58.2744Z" fill="#00489A"/>
<path d="M27.3981 2.45624C29.3691 2.45624 31.1235 3.35068 32.2823 4.74557L33.3111 2.57337C31.6975 1.08263 29.5099 0.15625 27.0949 0.15625C23.3262 0.15625 20.1097 2.39235 18.7885 5.55483H16.785L15.5938 8.05713H18.182C18.1604 8.29139 18.1496 8.52565 18.1496 8.75991C18.1496 9.0474 18.1712 9.32425 18.1929 9.61175H16.8933L15.702 12.1141H18.8427C20.1964 15.202 23.3803 17.3636 27.0841 17.3636C28.9468 17.3636 30.6795 16.8099 32.1199 15.8728V12.8062C30.9611 14.1052 29.2717 14.9145 27.3873 14.9145C25.1889 14.9145 23.2504 13.7965 22.1132 12.1034H28.6977L29.8781 9.6011H21.1602C21.1169 9.30296 21.0844 8.99416 21.0844 8.68537C21.0844 8.47241 21.0952 8.25945 21.1169 8.05713H30.6254L31.8167 5.55483H21.9508C23.0446 3.70206 25.0697 2.45624 27.3981 2.45624Z" fill="#FDC300"/>
<path d="M27.3992 2.535C29.2727 2.535 31.038 3.3549 32.2292 4.80304L32.3051 4.89887L32.3592 4.79239L33.388 2.62018L33.4097 2.56694L33.3664 2.52435C31.6769 0.948432 29.446 0.0859375 27.096 0.0859375C25.2549 0.0859375 23.4897 0.618341 21.9843 1.61926C20.5115 2.58824 19.3852 3.95119 18.7246 5.53776L18.8004 5.49516H16.7861H16.7319L16.7103 5.53776L15.519 8.04006L15.4648 8.14654H15.584H18.1723L18.0965 8.06135C18.0748 8.31691 18.064 8.55116 18.064 8.76412C18.064 9.04098 18.0748 9.32847 18.1073 9.62662L18.1831 9.54143H16.8835H16.8402L16.8186 9.58403L15.6273 12.0863L15.5731 12.1928H15.6923H18.8329L18.7571 12.1502C20.1758 15.3659 23.4355 17.4423 27.0743 17.4423C28.8937 17.4423 30.6481 16.9206 32.1534 15.9409L32.1859 15.9196V15.877V12.8104V12.6081L32.056 12.7572C30.8755 14.0775 29.1753 14.8442 27.3884 14.8442C25.2874 14.8442 23.338 13.8113 22.1793 12.0757L22.1143 12.1928H28.6988H28.7421L28.7637 12.1502L29.9442 9.64791L29.9983 9.54143H29.9009H21.1721L21.2479 9.60532C21.2046 9.30718 21.1829 8.99838 21.1829 8.68959C21.1829 8.48727 21.1938 8.27431 21.2154 8.072L21.1396 8.13589H30.6481H30.7023L30.7239 8.0933L31.9044 5.591L31.9585 5.48452H31.8394H21.9518L22.0168 5.60164C23.1323 3.70628 25.1899 2.535 27.3992 2.535ZM21.9518 5.63359H31.8285L31.7636 5.52711L30.5723 8.02941L30.6373 7.98681H21.1288H21.0638L21.053 8.0507C21.0313 8.26366 21.0205 8.47663 21.0205 8.68959C21.0205 8.99838 21.0421 9.30718 21.0963 9.62662L21.1071 9.69051H21.1721H29.9009L29.8359 9.58403L28.6554 12.0863L28.7204 12.0437H22.136H21.9952L22.071 12.1609C23.2514 13.9391 25.2549 15.0039 27.3992 15.0039C29.2294 15.0039 30.973 14.2266 32.1859 12.8743L32.056 12.821V15.8877L32.0885 15.8238C30.6156 16.7928 28.8829 17.3039 27.096 17.3039C23.5222 17.3039 20.3166 15.2595 18.9195 12.097L18.8979 12.0544H18.8545H15.7139L15.7897 12.1609L16.9702 9.65856L16.9052 9.70115H18.2048H18.2914L18.2806 9.61597C18.2481 9.33912 18.2373 9.05162 18.2373 8.77477C18.2373 8.56181 18.2481 8.3382 18.2697 8.08265L18.2806 7.99746H18.1939H15.5948L15.6598 8.10394L16.851 5.60164L16.7861 5.64424H18.7896H18.8437L18.8654 5.60164C19.5152 4.03638 20.6306 2.70536 22.071 1.74704C23.5546 0.767414 25.2874 0.245659 27.096 0.245659C29.4027 0.245659 31.6011 1.09751 33.2689 2.64148L33.2472 2.55629L32.2184 4.7285L32.3484 4.7072C31.1354 3.23777 29.3269 2.38592 27.3992 2.38592C25.1358 2.38592 23.024 3.58916 21.8869 5.52711L21.8219 5.63359H21.9518Z" fill="#00489A"/>
</g>
<defs>
<clipPath id="clip0_1_19882">
<rect width="65" height="23" fill="white"/>
</clipPath>
</defs>
</svg>
