<svg width="82" height="25" viewBox="0 0 82 25" fill="none" xmlns="http://www.w3.org/2000/svg">
<path d="M42.4084 7.9694C42.3616 11.3127 45.6958 13.1783 48.2074 14.2876C50.7878 15.4256 51.6546 16.1555 51.6443 17.1733C51.6251 18.7309 49.586 19.4184 47.6779 19.4451C44.3489 19.4918 42.4132 18.6305 40.8744 17.979L39.6752 23.0651C41.2191 23.7099 44.0779 24.2722 47.0424 24.2969C54.0012 24.2969 58.5538 21.1835 58.5784 16.3564C58.6057 10.2301 49.2291 9.89101 49.2932 7.15273C49.3153 6.32242 50.1894 5.43637 52.1049 5.21109C53.053 5.09728 55.6703 5.01019 58.6377 6.24868L59.8023 1.3278C58.2065 0.801159 56.1556 0.296875 53.6021 0.296875C47.0523 0.296875 42.4456 3.45263 42.4084 7.9694ZM70.9934 0.720739C69.7227 0.720739 68.6519 1.39253 68.174 2.42345L58.2338 23.9354H65.1874L66.5712 20.4693H75.0684L75.8711 23.9354H82L76.6517 0.720739H70.9934ZM71.9662 6.9919L73.973 15.7093H68.477L71.9662 6.9919ZM33.9775 0.721029L28.4963 23.9351H35.1226L40.6012 0.720449H33.9775V0.721029ZM24.1749 0.720449L17.278 16.5216L14.4881 3.08654C14.1607 1.58676 12.8679 0.720739 11.4323 0.720739H0.157914L0 1.39486C2.31458 1.85007 4.94434 2.58429 6.53758 3.36989C7.51261 3.84978 7.79064 4.26929 8.11095 5.40966L13.3951 23.9354H20.3975L31.1331 0.720739H24.1749" fill="url(#paint0_linear_1_19855)"/>
<defs>
<linearGradient id="paint0_linear_1_19855" x1="37.6987" y1="24.7783" x2="38.3284" y2="0.12647" gradientUnits="userSpaceOnUse">
<stop stop-color="#222357"/>
<stop offset="1" stop-color="#254AA5"/>
</linearGradient>
</defs>
</svg>
