<svg width="654" height="1220" viewBox="0 0 654 1220" fill="none" xmlns="http://www.w3.org/2000/svg">
<path d="M2.7589 1220C72.5802 889.793 69.4676 575.707 54.5413 370.299C38.3416 147.78 5.23483 1.48487 4.88112 0L2.19297 0.919207C2.54667 2.40408 35.5827 148.487 51.7116 370.723C66.638 575.777 69.7506 889.439 0 1219.15L2.7589 1220Z" fill="#131618"/>
<path d="M602.005 459.462L601.793 455.997L60.1299 506.412L60.3421 509.877L602.005 459.462Z" fill="#131618"/>
<path d="M652.868 822.195L654 819.014L60.8369 506.554L59.7051 509.736L652.868 822.195Z" fill="#131618"/>
<path d="M402.375 130.457L400.465 127.911L59.2812 506.837L61.1913 509.382L402.375 130.457Z" fill="#131618"/>
<path d="M367.853 964.39L61.3326 507.049L59.1396 509.241L365.731 966.582L367.853 964.39Z" fill="#131618"/>
<path d="M635.537 811.165L633.415 808.69C538.905 700.931 583.896 462.149 584.321 459.745L584.533 458.684L583.684 458.26C434.633 382.319 383.982 152.235 383.487 149.901L383.204 148.629L382.214 148.982C285.299 179.952 188.737 142.336 124.717 105.285C55.3198 65.1223 8.27709 17.0407 7.85265 16.5457L6.50857 18.5255C7.00376 19.0205 54.188 67.3142 123.797 107.618C187.888 144.74 284.591 182.427 381.719 151.811C385.963 170.265 438.382 386.279 582.128 460.169C578.944 477.705 540.461 702.133 629.949 808.195C606.321 807.417 440.08 807.417 357.313 950.955C351.441 952.157 289.755 964.955 217.953 999.744C148.556 1033.33 55.3198 1094.71 5.09375 1196.74L6.93301 1198.08C56.8761 1096.68 149.688 1035.59 218.731 1002.15C293.646 965.945 357.525 953.571 358.162 953.43L358.586 953.359L358.869 952.935C446.871 799.64 630.868 810.811 632.778 810.953L635.537 811.165Z" fill="#131618"/>
<path d="M580.147 781.962L578.025 779.558C492.358 680.85 534.307 466.533 534.802 464.412L535.014 463.351L534.166 462.927C398.838 393.067 353.847 185.538 353.422 183.417L351.371 184.054C351.795 186.175 396.857 394.128 532.539 464.836C529.426 481.382 493.773 682.122 574.629 779.134C552.558 778.71 403.649 780.69 330.149 910.51C318.618 912.773 110.498 956.541 19.8789 1116.98L21.6474 1118.46C113.894 955.127 328.875 913.338 330.998 912.985L331.563 912.844L331.776 912.207C410.086 773.407 575.62 781.68 577.318 781.821L580.147 781.962Z" fill="#131618"/>
<path d="M485.071 469.291L485.495 468.018L484.505 467.523C363.113 403.815 323.711 218.63 323.286 216.791L323.003 215.589L322.013 215.872C184.068 255.752 49.9432 135.406 24.4765 110.871L23.2031 112.921C48.7406 137.528 183.007 258.014 321.588 218.63C325.267 235.034 366.58 408.411 483.727 469.927L484.151 468.796L485.071 469.291Z" fill="#131618"/>
<path d="M521.857 752.619L521.927 750.002C520.442 749.932 372.452 744.275 302.984 870.065C292.585 872.115 115.45 908.672 31.1973 1044.86L32.8951 1046.41C118.775 907.682 301.923 872.893 303.762 872.54L304.257 872.469L304.54 871.974C373.159 746.962 520.371 752.548 521.857 752.619Z" fill="#131618"/>
<path d="M467.173 721.224C399.05 640.9 435.269 475.301 435.623 473.674L435.835 472.614L434.986 472.19C327.389 414.492 293.575 251.792 293.292 250.166L293.08 248.964L292.09 249.247C173.669 281.207 62.6059 186.387 31.4092 156.548L31.197 156.407L30.2773 158.74C61.4741 188.508 172.679 283.399 291.594 252.075C294.919 267.206 330.502 418.31 433.501 474.099C430.459 488.665 399.828 645.213 465.9 723.133L467.173 721.224Z" fill="#131618"/>
<path d="M276.597 831.953L276.314 829.408C274.758 829.691 118.067 858.61 39.9687 977.612L41.5958 979.239C119.199 861.014 275.041 832.165 276.597 831.953Z" fill="#131618"/>
<path d="M413.694 694.284L411.854 692.022C355.332 624.212 382.709 493.261 385.963 478.553L386.388 477.351L385.468 476.644C291.595 425.169 263.44 285.025 263.157 283.611L261.105 284.176C261.388 285.591 289.614 426.159 383.699 478.553C379.809 496.372 354.342 623.293 408.53 691.668C391.693 692.304 294.424 699.658 248.655 788.963C239.742 790.66 113.752 815.69 46.8311 913.48L48.4581 915.177C116.935 815.054 248.089 791.72 249.433 791.508L249.928 791.437L250.211 790.942C299.447 694.214 409.944 694.284 411.005 694.355L413.694 694.284Z" fill="#131618"/>
<path d="M358.161 665.011L356.393 662.819C306.521 601.515 335.171 487.745 336.444 482.937L336.727 481.877L335.949 481.311C255.941 436.058 233.374 318.258 233.162 317.056L232.95 315.854L231.96 316.066C143.746 334.521 64.5866 266.641 42.4447 245.428L41.1006 247.479C63.3132 268.762 142.614 336.713 231.323 318.823C233.94 331.41 258.275 439.522 334.251 483.22C330.997 496.513 306.874 602.505 353.28 662.607C338.425 663.668 258.205 672.718 221.49 748.518C213.213 750.002 109.366 770.154 52.2777 851.822L53.9047 853.519C112.62 769.589 221.207 751.204 222.339 750.992L222.834 750.922L223.117 750.356C262.732 667.839 354.837 665.082 355.756 665.082L358.161 665.011Z" fill="#131618"/>
<path d="M286.784 487.675L287.209 486.473L286.289 485.907C220.076 446.664 203.168 351.42 203.027 350.501L202.815 349.299L201.824 349.44C127.829 361.602 64.5869 306.167 46.9017 288.914L45.5576 290.964C63.3136 308.288 126.697 363.794 201.117 352.198C203.31 363.37 222.198 450.836 285.369 488.24L285.794 487.109L286.784 487.675Z" fill="#131618"/>
<path d="M300.367 635.879L300.225 633.263C299.447 633.334 224.957 638.778 194.255 707.931C186.686 709.204 103.282 724.547 56.1689 792.003L57.796 793.7C106.395 724.123 194.185 710.547 195.104 710.476L195.67 710.406L195.953 709.84C225.876 641.394 299.589 635.95 300.367 635.879Z" fill="#131618"/>
<path d="M247.099 606.465L245.684 604.555C212.86 560.999 237.053 492.978 237.266 492.341L237.69 491.21L236.841 490.644C184.493 457.482 173.104 384.653 172.962 383.946L170.911 384.441C171.052 385.148 182.441 458.402 235.002 492.412C232.031 501.463 213.285 562.838 242.854 604.485C232.668 606.535 185.978 618.414 167.303 667.344C154.287 669.395 94.5104 681.627 58.9277 734.164L60.5548 735.79C95.9253 683.466 155.843 671.728 167.657 669.89L168.364 670.243L168.859 669.112C189.091 614.95 244.481 606.747 244.976 606.677L247.099 606.465Z" fill="#131618"/>
<path d="M191.426 577.05L190.294 575.424C166.383 541.13 187.393 497.503 187.606 497.079L188.172 495.948L187.252 495.311C148.698 468.23 143.039 417.886 142.968 417.391L142.827 416.259H141.907C94.2276 415.835 62.6772 383.804 54.1883 374.047L52.7734 375.956C61.4038 385.855 93.0958 418.027 141.058 418.876C142.119 426.512 149.901 471.412 185.342 496.938C182.159 504.079 166.525 543.322 187.747 575.636C180.39 578.252 149.972 591.121 139.997 627.041C133.701 627.818 87.2243 634.819 60.5549 678.021L62.2527 679.577C90.1954 634.324 140.421 629.586 140.917 629.515L141.483 629.374L141.695 628.526C152.377 588.505 189.374 577.616 189.728 577.474L191.426 577.05Z" fill="#131618"/>
<path d="M113.54 588.929V586.313C113.186 586.313 79.2307 586.171 60.9795 624.707L62.8188 625.98C80.4333 588.858 113.186 588.929 113.54 588.929Z" fill="#131618"/>
<path d="M134.903 546.221C119.906 521.403 137.096 502.736 137.804 501.958L138.865 500.897L137.733 499.978C112.974 479.119 112.832 451.26 112.832 451.048V449.917L111.913 449.704C72.6513 441.856 57.0883 415.623 56.9468 415.34L55.249 416.825C55.8857 417.956 71.2365 443.836 110.781 452.108C111.064 457.553 113.681 482.089 135.54 501.18C131.791 505.917 119.199 524.584 133.276 547.847L134.903 546.221Z" fill="#131618"/>
</svg>
